<svg xmlns="http://www.w3.org/2000/svg" width="178.2" height="44" viewBox="0 0 178.2 44">
  <g id="Button" transform="translate(-394 -501)">
    <rect id="Rectangle_109" data-name="Rectangle 109" width="178.2" height="44" rx="10" transform="translate(394 501)" fill="#131415"/>
    <g id="Group_157413" data-name="Group 157413" transform="translate(408.667 513.1)">
      <path id="Path_195121" data-name="Path 195121" d="M4.4,0A4.4,4.4,0,1,1,0,4.4,4.4,4.4,0,0,1,4.4,0Z" transform="translate(2.933)" fill="#d0b06c"/>
      <path id="Path_195120" data-name="Path 195120" d="M2.2,0H12.467a2.2,2.2,0,0,1,2.2,2.2V3.3a5.5,5.5,0,0,1-5.5,5.5H5.5A5.5,5.5,0,0,1,0,3.3V2.2A2.2,2.2,0,0,1,2.2,0Z" transform="translate(0 11.733)" fill="#d0b06c"/>
    </g>
    <path id="Path_195119" data-name="Path 195119" d="M7.819-1.937H2.9L1.8,1.125H.205l4.479-11.73H6.038l4.488,11.73H8.938ZM3.371-3.209H7.359l-2-5.487Zm8.137-.1a5.107,5.107,0,0,1,.951-3.227,3.006,3.006,0,0,1,2.49-1.221,3.023,3.023,0,0,1,2.425,1.047V-11.25h1.49V1.125h-1.37L17.422.19a3.035,3.035,0,0,1-2.49,1.1A2.977,2.977,0,0,1,12.463.045a5.165,5.165,0,0,1-.955-3.239ZM13-3.137a3.867,3.867,0,0,0,.612,2.32A1.979,1.979,0,0,0,15.3.021a2.174,2.174,0,0,0,2.071-1.273v-4a2.191,2.191,0,0,0-2.054-1.233,1.989,1.989,0,0,0-1.708.846A4.257,4.257,0,0,0,13-3.137Zm7.815-.169a5.107,5.107,0,0,1,.951-3.227,3.006,3.006,0,0,1,2.49-1.221,3.023,3.023,0,0,1,2.425,1.047V-11.25h1.49V1.125H26.8L26.728.19a3.035,3.035,0,0,1-2.49,1.1A2.977,2.977,0,0,1,21.769.045a5.165,5.165,0,0,1-.955-3.239Zm1.49.169a3.867,3.867,0,0,0,.612,2.32,1.979,1.979,0,0,0,1.692.838,2.174,2.174,0,0,0,2.071-1.273v-4a2.191,2.191,0,0,0-2.054-1.233,1.989,1.989,0,0,0-1.708.846A4.257,4.257,0,0,0,22.3-3.137ZM36.589-9.7v2.111h1.627V-6.44H36.589v5.406a1.207,1.207,0,0,0,.218.786.916.916,0,0,0,.741.262,3.609,3.609,0,0,0,.709-.1V1.125a4.321,4.321,0,0,1-1.144.161,1.856,1.856,0,0,1-1.507-.6A2.6,2.6,0,0,1,35.1-1.034V-6.44H33.511V-7.592H35.1V-9.7ZM39.4-3.314a5.149,5.149,0,0,1,.5-2.3,3.756,3.756,0,0,1,1.4-1.579,3.816,3.816,0,0,1,2.05-.556,3.676,3.676,0,0,1,2.88,1.233,4.742,4.742,0,0,1,1.1,3.279v.1a5.194,5.194,0,0,1-.487,2.284A3.7,3.7,0,0,1,45.455.722a3.86,3.86,0,0,1-2.083.564A3.667,3.667,0,0,1,40.5.053a4.718,4.718,0,0,1-1.1-3.263Zm1.5.177a3.729,3.729,0,0,0,.673,2.328,2.153,2.153,0,0,0,1.8.878,2.14,2.14,0,0,0,1.8-.89,4.078,4.078,0,0,0,.669-2.494,3.723,3.723,0,0,0-.681-2.324,2.164,2.164,0,0,0-1.809-.89,2.14,2.14,0,0,0-1.781.878A4.048,4.048,0,0,0,40.9-3.137Zm21.543.354A4.151,4.151,0,0,1,61.045.2a4.909,4.909,0,0,1-3.323,1.088A4.414,4.414,0,0,1,54.172-.233,6.227,6.227,0,0,1,52.879-4.4v-.717a7.032,7.032,0,0,1,.6-2.981,4.468,4.468,0,0,1,1.7-1.978,4.773,4.773,0,0,1,2.574-.689,4.782,4.782,0,0,1,3.271,1.088,4.461,4.461,0,0,1,1.434,3.053H60.042a2.45,2.45,0,0,0-.632-1.648,2.342,2.342,0,0,0-1.656-.512,2.054,2.054,0,0,0-1.809.866,4.854,4.854,0,0,0-.616,2.687v.886a5.2,5.2,0,0,0,.576,2.78,2.016,2.016,0,0,0,1.817.878A2.386,2.386,0,0,0,59.393-1.2a2.311,2.311,0,0,0,.632-1.583Zm1.072-.532a5.17,5.17,0,0,1,.5-2.312A3.657,3.657,0,0,1,65.452-7.2a4.2,4.2,0,0,1,2.179-.556,3.97,3.97,0,0,1,2.88,1.08,4.333,4.333,0,0,1,1.245,2.933l.016.6A4.556,4.556,0,0,1,70.652.074a3.893,3.893,0,0,1-3.005,1.213A3.912,3.912,0,0,1,64.638.078a4.636,4.636,0,0,1-1.124-3.287Zm2.328.169a3.25,3.25,0,0,0,.467,1.9,1.542,1.542,0,0,0,1.337.657,1.546,1.546,0,0,0,1.321-.649,3.556,3.556,0,0,0,.475-2.075A3.217,3.217,0,0,0,68.968-5.2a1.546,1.546,0,0,0-1.337-.669A1.521,1.521,0,0,0,66.31-5.2,3.616,3.616,0,0,0,65.843-3.145Zm9.507-4.447.073,1.007a3.044,3.044,0,0,1,2.506-1.168,2.529,2.529,0,0,1,2.063.814,3.8,3.8,0,0,1,.693,2.433V1.125H78.354V-4.45a1.511,1.511,0,0,0-.322-1.076,1.443,1.443,0,0,0-1.072-.334,1.6,1.6,0,0,0-1.474.838V1.125H73.158V-7.592Zm9.885-2.143v2.143h1.49v1.708h-1.49v4.351a1.039,1.039,0,0,0,.185.693.931.931,0,0,0,.709.209,3.713,3.713,0,0,0,.685-.056V1.077a4.793,4.793,0,0,1-1.41.209,2.223,2.223,0,0,1-2.5-2.473v-4.7H81.634V-7.592h1.273V-9.735Zm7.839,10.86A2.586,2.586,0,0,1,92.84.344a2.817,2.817,0,0,1-2.2.943A3.1,3.1,0,0,1,88.518.545a2.384,2.384,0,0,1-.842-1.869A2.463,2.463,0,0,1,88.7-3.451,5.069,5.069,0,0,1,91.672-4.2h1.072v-.5a1.437,1.437,0,0,0-.31-.967,1.22,1.22,0,0,0-.979-.363,1.387,1.387,0,0,0-.922.282.958.958,0,0,0-.334.773H87.869a2.339,2.339,0,0,1,.467-1.4,3.089,3.089,0,0,1,1.321-1.011,4.815,4.815,0,0,1,1.917-.367,3.8,3.8,0,0,1,2.558.81,2.833,2.833,0,0,1,.947,2.276V-.889A4.168,4.168,0,0,0,95.427.988v.137ZM91.148-.494a2.005,2.005,0,0,0,.951-.23,1.508,1.508,0,0,0,.645-.616v-1.5h-.87q-1.748,0-1.861,1.208L90-1.493a.932.932,0,0,0,.306.717A1.189,1.189,0,0,0,91.148-.494Zm9.346-.1a1.527,1.527,0,0,0,1.047-.354,1.242,1.242,0,0,0,.419-.943h2.183a2.987,2.987,0,0,1-.483,1.623,3.19,3.19,0,0,1-1.3,1.144,4.072,4.072,0,0,1-1.825.407A3.785,3.785,0,0,1,97.586.1a4.7,4.7,0,0,1-1.08-3.283v-.153a4.649,4.649,0,0,1,1.072-3.215,3.74,3.74,0,0,1,2.941-1.2,3.667,3.667,0,0,1,2.622.931,3.3,3.3,0,0,1,1,2.477H101.96a1.587,1.587,0,0,0-.419-1.1,1.4,1.4,0,0,0-1.063-.423,1.4,1.4,0,0,0-1.229.592,3.428,3.428,0,0,0-.415,1.922v.242a3.471,3.471,0,0,0,.411,1.934A1.421,1.421,0,0,0,100.494-.591Zm7.767-9.144v2.143h1.49v1.708h-1.49v4.351a1.039,1.039,0,0,0,.185.693.931.931,0,0,0,.709.209,3.713,3.713,0,0,0,.685-.056V1.077a4.793,4.793,0,0,1-1.41.209,2.223,2.223,0,0,1-2.5-2.473v-4.7h-1.273V-7.592h1.273V-9.735Zm7.509,8.451a.75.75,0,0,0-.423-.673,4.8,4.8,0,0,0-1.358-.439q-3.11-.653-3.11-2.643a2.4,2.4,0,0,1,.963-1.938,3.884,3.884,0,0,1,2.518-.777,4.18,4.18,0,0,1,2.655.781,2.463,2.463,0,0,1,.995,2.03h-2.328a1.127,1.127,0,0,0-.322-.826,1.364,1.364,0,0,0-1.007-.326,1.394,1.394,0,0,0-.91.266.839.839,0,0,0-.322.677.717.717,0,0,0,.367.624,3.771,3.771,0,0,0,1.237.411,10.1,10.1,0,0,1,1.466.391,2.409,2.409,0,0,1,1.845,2.344A2.274,2.274,0,0,1,117.01.549a4.414,4.414,0,0,1-2.643.737A4.61,4.61,0,0,1,112.422.9a3.265,3.265,0,0,1-1.333-1.072,2.49,2.49,0,0,1-.483-1.47h2.208a1.216,1.216,0,0,0,.459.951,1.822,1.822,0,0,0,1.144.33,1.686,1.686,0,0,0,1.011-.254A.79.79,0,0,0,115.77-1.284Z" transform="translate(438.387 528.476)" fill="#fff"/>
  </g>
</svg>
