<svg xmlns="http://www.w3.org/2000/svg" width="205" height="40" viewBox="0 0 205 40">
  <g id="Group_158005" data-name="Group 158005" transform="translate(-1029 -1235)">
    <path id="Path_214553" data-name="Path 214553" d="M19,0H186a19,19,0,0,1,19,19v2a19,19,0,0,1-19,19H19A19,19,0,0,1,0,21V19A19,19,0,0,1,19,0Z" transform="translate(1029 1235)" opacity="0.05"/>
    <path id="copy-svgrepo-com_3_" data-name="copy-svgrepo-com (3)" d="M15,1.25H10.944A36.527,36.527,0,0,0,6.511,1.4a4.711,4.711,0,0,0-2.87,1.238A4.711,4.711,0,0,0,2.4,5.511,36.526,36.526,0,0,0,2.25,9.944V16a3.751,3.751,0,0,0,3.166,3.7,3.5,3.5,0,0,0,.933,1.947,3.717,3.717,0,0,0,2.26.982,27.434,27.434,0,0,0,3.337.117h3.11a27.435,27.435,0,0,0,3.337-.117,3.718,3.718,0,0,0,2.26-.982,3.718,3.718,0,0,0,.982-2.26,27.435,27.435,0,0,0,.117-3.337v-5.11a27.434,27.434,0,0,0-.117-3.337,3.717,3.717,0,0,0-.982-2.26A3.5,3.5,0,0,0,18.7,4.416,3.751,3.751,0,0,0,15,1.25Zm2.129,3.021A2.251,2.251,0,0,0,15,2.75H11a35.992,35.992,0,0,0-4.289.14A3.247,3.247,0,0,0,4.7,3.7,3.247,3.247,0,0,0,3.89,5.711,35.992,35.992,0,0,0,3.75,10v6a2.251,2.251,0,0,0,1.521,2.129c-.021-.61-.021-1.3-.021-2.074v-5.11a27.417,27.417,0,0,1,.117-3.337,3.717,3.717,0,0,1,.982-2.26,3.717,3.717,0,0,1,2.26-.982,27.417,27.417,0,0,1,3.337-.117h3.11C15.83,4.25,16.519,4.25,17.129,4.271ZM7.409,6.409a2.255,2.255,0,0,1,1.4-.556A26.863,26.863,0,0,1,12,5.75h3a26.863,26.863,0,0,1,3.192.1,2.255,2.255,0,0,1,1.4.556,2.255,2.255,0,0,1,.556,1.4A26.878,26.878,0,0,1,20.25,11v5a26.879,26.879,0,0,1-.1,3.192,2.255,2.255,0,0,1-.556,1.4,2.255,2.255,0,0,1-1.4.556,26.879,26.879,0,0,1-3.192.1H12a26.878,26.878,0,0,1-3.192-.1,2.255,2.255,0,0,1-1.4-.556,2.255,2.255,0,0,1-.556-1.4A26.863,26.863,0,0,1,6.75,16V11a26.862,26.862,0,0,1,.1-3.192A2.255,2.255,0,0,1,7.409,6.409Z" transform="translate(1045.75 1243)" fill="#1c274c" fill-rule="evenodd" opacity="0.48"/>
    <path id="Path_214552" data-name="Path 214552" d="M8.477-3.158A3.662,3.662,0,0,1,7.311-.721,3.82,3.82,0,0,1,4.7.137,3.507,3.507,0,0,1,1.876-1.128,5.088,5.088,0,0,1,.813-4.512v-.957a5.671,5.671,0,0,1,.5-2.44,3.7,3.7,0,0,1,1.4-1.617,3.911,3.911,0,0,1,2.105-.564A3.6,3.6,0,0,1,7.362-9.2,3.706,3.706,0,0,1,8.477-6.754H7.157a2.847,2.847,0,0,0-.742-1.723,2.248,2.248,0,0,0-1.6-.533,2.349,2.349,0,0,0-1.972.93,4.265,4.265,0,0,0-.714,2.646v.964A4.384,4.384,0,0,0,2.81-1.894,2.187,2.187,0,0,0,4.7-.937a2.526,2.526,0,0,0,1.678-.5,2.75,2.75,0,0,0,.776-1.726Zm1.258-.608a4.369,4.369,0,0,1,.427-1.955,3.187,3.187,0,0,1,1.189-1.34,3.238,3.238,0,0,1,1.74-.472,3.119,3.119,0,0,1,2.444,1.046,4.024,4.024,0,0,1,.933,2.782v.089a4.407,4.407,0,0,1-.414,1.938A3.14,3.14,0,0,1,14.872-.342,3.275,3.275,0,0,1,13.1.137,3.111,3.111,0,0,1,10.667-.909a4,4,0,0,1-.933-2.769Zm1.271.15a3.164,3.164,0,0,0,.571,1.976A1.827,1.827,0,0,0,13.1-.9a1.816,1.816,0,0,0,1.531-.755A3.46,3.46,0,0,0,15.2-3.767a3.159,3.159,0,0,0-.578-1.972,1.836,1.836,0,0,0-1.535-.755,1.816,1.816,0,0,0-1.511.745A3.434,3.434,0,0,0,11.006-3.616Zm13.3,0A4.429,4.429,0,0,1,23.529-.9,2.476,2.476,0,0,1,21.438.137a2.713,2.713,0,0,1-2.119-.854V2.844H18.054V-7.4h1.155l.062.82a2.605,2.605,0,0,1,2.146-.957,2.522,2.522,0,0,1,2.109,1,4.477,4.477,0,0,1,.776,2.8ZM23.037-3.76A3.268,3.268,0,0,0,22.5-5.735a1.718,1.718,0,0,0-1.463-.725,1.859,1.859,0,0,0-1.723,1.019v3.534A1.863,1.863,0,0,0,21.055-.9,1.71,1.71,0,0,0,22.5-1.617,3.567,3.567,0,0,0,23.037-3.76Zm5.291,1.907L30.051-7.4H31.4L28.431,1.142q-.69,1.846-2.194,1.846L26,2.967l-.472-.089V1.853l.342.027a1.683,1.683,0,0,0,1-.26A1.88,1.88,0,0,0,27.46.67l.28-.752L25.1-7.4h1.381ZM35.93,0V-9.953h3.063a4.651,4.651,0,0,1,2.348.591A4.123,4.123,0,0,1,42.957-7.68,5.187,5.187,0,0,1,43.538-5.2v.458a5.2,5.2,0,0,1-.571,2.468A4.088,4.088,0,0,1,41.357-.6a4.686,4.686,0,0,1-2.345.6ZM37.98-8.292v6.645h.991a2.227,2.227,0,0,0,1.839-.786,3.552,3.552,0,0,0,.649-2.249v-.526a3.609,3.609,0,0,0-.629-2.3,2.219,2.219,0,0,0-1.839-.783Zm9,8.292H45V-7.4h1.982Zm-2.1-9.311a.973.973,0,0,1,.3-.731,1.117,1.117,0,0,1,.81-.287,1.12,1.12,0,0,1,.807.287.967.967,0,0,1,.3.731.97.97,0,0,1-.3.738,1.122,1.122,0,0,1-.8.287,1.122,1.122,0,0,1-.8-.287A.97.97,0,0,1,44.885-9.311Zm3.438,5.558a4.335,4.335,0,0,1,.81-2.741,2.625,2.625,0,0,1,2.184-1.039,2.3,2.3,0,0,1,1.894.834l.082-.7h1.791v7.15a3.161,3.161,0,0,1-.441,1.688A2.832,2.832,0,0,1,53.4,2.536a4.362,4.362,0,0,1-1.873.376,4.056,4.056,0,0,1-1.586-.325,2.815,2.815,0,0,1-1.169-.837l.875-1.2a2.314,2.314,0,0,0,1.791.827,1.694,1.694,0,0,0,1.224-.42A1.577,1.577,0,0,0,53.1-.239v-.4a2.285,2.285,0,0,1-1.8.772A2.618,2.618,0,0,1,49.147-.906a4.334,4.334,0,0,1-.824-2.765Zm1.976.144a2.692,2.692,0,0,0,.4,1.576,1.284,1.284,0,0,0,1.107.571A1.372,1.372,0,0,0,53.1-2.14V-5.25a1.369,1.369,0,0,0-1.278-.677,1.292,1.292,0,0,0-1.118.581A3.034,3.034,0,0,0,50.3-3.609ZM58.687,0H56.7V-7.4h1.982Zm-2.1-9.311a.973.973,0,0,1,.3-.731,1.117,1.117,0,0,1,.81-.287,1.12,1.12,0,0,1,.807.287.967.967,0,0,1,.3.731.97.97,0,0,1-.3.738,1.122,1.122,0,0,1-.8.287,1.122,1.122,0,0,1-.8-.287A.97.97,0,0,1,56.588-9.311Zm6.091.1V-7.4h1.265v1.449H62.679v3.691a.881.881,0,0,0,.157.588.79.79,0,0,0,.6.178,3.151,3.151,0,0,0,.581-.048v1.5a4.067,4.067,0,0,1-1.2.178,1.886,1.886,0,0,1-2.119-2.1V-5.947h-1.08V-7.4H60.7V-9.215ZM69.33,0a2.194,2.194,0,0,1-.2-.663,2.39,2.39,0,0,1-1.866.8,2.626,2.626,0,0,1-1.8-.629,2.023,2.023,0,0,1-.714-1.586,2.09,2.09,0,0,1,.872-1.8,4.3,4.3,0,0,1,2.519-.636h.909v-.424a1.219,1.219,0,0,0-.263-.82,1.035,1.035,0,0,0-.831-.308,1.177,1.177,0,0,0-.783.239.813.813,0,0,0-.284.656H64.914a1.985,1.985,0,0,1,.4-1.189,2.621,2.621,0,0,1,1.121-.858,4.086,4.086,0,0,1,1.627-.311,3.228,3.228,0,0,1,2.17.687,2.4,2.4,0,0,1,.8,1.931v3.206a3.536,3.536,0,0,0,.294,1.593V0ZM67.7-1.374a1.7,1.7,0,0,0,.807-.195,1.28,1.28,0,0,0,.547-.523V-3.363h-.738q-1.483,0-1.579,1.025l-.007.116a.791.791,0,0,0,.26.608A1.009,1.009,0,0,0,67.7-1.374ZM74.635,0H72.652V-10.5h1.982ZM87.691-3.315A3.522,3.522,0,0,1,86.505-.786a4.165,4.165,0,0,1-2.82.923,3.745,3.745,0,0,1-3.011-1.289,5.284,5.284,0,0,1-1.1-3.538V-5.3a5.966,5.966,0,0,1,.506-2.529,3.791,3.791,0,0,1,1.446-1.678,4.05,4.05,0,0,1,2.184-.584,4.058,4.058,0,0,1,2.775.923,3.785,3.785,0,0,1,1.217,2.591H85.654a2.079,2.079,0,0,0-.537-1.4,1.987,1.987,0,0,0-1.4-.434,1.742,1.742,0,0,0-1.535.735,4.118,4.118,0,0,0-.523,2.28v.752a4.408,4.408,0,0,0,.489,2.358,1.71,1.71,0,0,0,1.542.745A2.025,2.025,0,0,0,85.1-1.972a1.961,1.961,0,0,0,.537-1.343ZM93.194,0A2.194,2.194,0,0,1,93-.663a2.39,2.39,0,0,1-1.866.8,2.626,2.626,0,0,1-1.8-.629,2.023,2.023,0,0,1-.714-1.586,2.09,2.09,0,0,1,.872-1.8A4.3,4.3,0,0,1,92-4.519h.909v-.424a1.219,1.219,0,0,0-.263-.82,1.035,1.035,0,0,0-.831-.308,1.177,1.177,0,0,0-.783.239.813.813,0,0,0-.284.656H88.778a1.985,1.985,0,0,1,.4-1.189A2.621,2.621,0,0,1,90.3-7.222a4.086,4.086,0,0,1,1.627-.311,3.228,3.228,0,0,1,2.17.687,2.4,2.4,0,0,1,.8,1.931v3.206A3.536,3.536,0,0,0,95.19-.116V0ZM91.561-1.374a1.7,1.7,0,0,0,.807-.195,1.28,1.28,0,0,0,.547-.523V-3.363h-.738q-1.483,0-1.579,1.025l-.007.116a.791.791,0,0,0,.26.608A1.009,1.009,0,0,0,91.561-1.374Zm9.01-4.17a5.367,5.367,0,0,0-.711-.055,1.447,1.447,0,0,0-1.47.759V0H96.414V-7.4H98.28l.055.882a1.831,1.831,0,0,1,1.647-1.019,2.07,2.07,0,0,1,.615.089Zm.643,1.791a4.457,4.457,0,0,1,.776-2.755,2.517,2.517,0,0,1,2.123-1.025,2.265,2.265,0,0,1,1.784.807V-10.5h1.982V0h-1.784L106-.786a2.325,2.325,0,0,1-1.9.923A2.511,2.511,0,0,1,102-.892,4.6,4.6,0,0,1,101.213-3.753Zm1.976.144a2.912,2.912,0,0,0,.362,1.593,1.181,1.181,0,0,0,1.053.554,1.322,1.322,0,0,0,1.292-.772V-5.154a1.3,1.3,0,0,0-1.278-.772Q103.188-5.927,103.188-3.609Zm17.09-6.344v6.768a3.175,3.175,0,0,1-.885,2.3,3.567,3.567,0,0,1-2.382,1l-.349.014a3.725,3.725,0,0,1-2.6-.882,3.154,3.154,0,0,1-.984-2.427V-9.953h1.3v6.74a2.277,2.277,0,0,0,.595,1.678,2.286,2.286,0,0,0,1.7.6,2.3,2.3,0,0,0,1.706-.595,2.272,2.272,0,0,0,.591-1.675V-9.953ZM126-4.026h-2.338V0h-1.319V-9.953h3.295a3.9,3.9,0,0,1,2.587.766,2.755,2.755,0,0,1,.906,2.229,2.68,2.68,0,0,1-.5,1.62,3,3,0,0,1-1.4,1.032l2.338,4.225V0H128.16ZM123.662-5.1h2.017a2.277,2.277,0,0,0,1.555-.506,1.709,1.709,0,0,0,.578-1.354,1.8,1.8,0,0,0-.55-1.415,2.333,2.333,0,0,0-1.589-.5h-2.01Zm8.627,4.026h4.717V0H130.97V-9.953h1.319Z" transform="translate(1077 1261)" fill="#1d1d1d"/>
  </g>
</svg>
