<svg xmlns="http://www.w3.org/2000/svg" xmlns:xlink="http://www.w3.org/1999/xlink" width="128.502" height="44" viewBox="0 0 128.502 44">
  <defs>
    <clipPath id="clip-path">
      <path id="shield-police-svgrepo-com" d="M21.352,45.957a.729.729,0,0,0,.5,0c2.136-.726,17.352-6.516,17.352-23.6V7.069a.88.88,0,0,0-.666-.856L21.814,2.027a.88.88,0,0,0-.428,0L4.666,6.213A.88.88,0,0,0,4,7.07V22.355C4,39.267,19.222,45.207,21.352,45.957Z" transform="translate(-4 -2)" fill="#0d2354"/>
    </clipPath>
  </defs>
  <g id="Group_23319" data-name="Group 23319" transform="translate(-77.095 -490)">
    <path id="shield-police-svgrepo-com-2" data-name="shield-police-svgrepo-com" d="M21.352,45.957a.729.729,0,0,0,.5,0c2.136-.726,17.352-6.516,17.352-23.6V7.069a.88.88,0,0,0-.666-.856L21.814,2.027a.88.88,0,0,0-.428,0L4.666,6.213A.88.88,0,0,0,4,7.07V22.355C4,39.267,19.222,45.207,21.352,45.957Z" transform="translate(73.095 488)" fill="#0d2354" fill-rule="evenodd"/>
    <g id="Mask_Group_3" data-name="Mask Group 3" transform="translate(77.095 490)" clip-path="url(#clip-path)">
      <g id="Group_23314" data-name="Group 23314" transform="translate(4.769 2.854)">
        <g id="Group_23316" data-name="Group 23316" transform="translate(0 9.991)">
          <g id="courtroom_logo" transform="translate(0 0)">
            <g id="Group_23310" data-name="Group 23310">
              <path id="Path_154198" data-name="Path 154198" d="M143.919,68.567a.837.837,0,0,0,.576-.831v-.8a.837.837,0,0,0-.576-.831.85.85,0,0,0-1.119.8v.863a.864.864,0,0,0,1.119.8Z" transform="translate(-127.744 -56.526)" fill="#d7aa7c"/>
              <path id="Path_154199" data-name="Path 154199" d="M133.963,87.3a.818.818,0,0,0-.863.743v21.12a5.043,5.043,0,0,1,.863-.048,4.5,4.5,0,0,1,.831.048V88.042A.809.809,0,0,0,133.963,87.3Z" transform="translate(-121.145 -70.974)" fill="#d7aa7c"/>
              <path id="Path_154200" data-name="Path 154200" d="M142.731,109.105a8.186,8.186,0,0,1,1.694.827V88.03a.875.875,0,0,0-1.726,0V109.1Z" transform="translate(-127.676 -70.976)" fill="#d7aa7c"/>
              <path id="Path_154201" data-name="Path 154201" d="M124.263,87.3a.813.813,0,0,0-.863.731V109.9a8.183,8.183,0,0,1,1.694-.828V88.027a.761.761,0,0,0-.831-.731Z" transform="translate(-114.545 -70.972)" fill="#d7aa7c"/>
              <path id="Path_154202" data-name="Path 154202" d="M123.4,66.916v.831a.837.837,0,0,0,.576.831.85.85,0,0,0,1.119-.8v-.83a.847.847,0,1,0-1.694-.032Z" transform="translate(-114.544 -56.537)" fill="#d7aa7c"/>
              <path id="Path_154204" data-name="Path 154204" d="M133.1,66.916v.831a.837.837,0,0,0,.576.831.85.85,0,0,0,1.119-.8v-.83a.847.847,0,1,0-1.694-.032Z" transform="translate(-121.144 -56.537)" fill="#d7aa7c"/>
              <path id="Path_154207" data-name="Path 154207" d="M-10408.964-4076.476h0l-.057-.019-.283-.1v-1.691l.051.018.03.011c.07.027.146.054.226.083v-23.378a.866.866,0,0,1-.864-.861.865.865,0,0,1,.864-.863v-3.2a2.524,2.524,0,0,0,.861-1.917,2.551,2.551,0,0,0-2.554-2.545,2.664,2.664,0,0,0-.514.052,2.515,2.515,0,0,0-1.98,1.981,2.562,2.562,0,0,0,.532,2.136,2.527,2.527,0,0,0,1.961.933h.062v1.694h-.062a4.216,4.216,0,0,1-3-1.239,4.214,4.214,0,0,1-1.253-3.012,4.263,4.263,0,0,1,3.421-4.187v-1.879a1.686,1.686,0,0,1,.5-1.194,1.677,1.677,0,0,1,1.2-.5h15.343a1.683,1.683,0,0,1,1.194.5,1.683,1.683,0,0,1,.5,1.194v1.879a4.319,4.319,0,0,1,3.422,4.187,4.261,4.261,0,0,1-4.255,4.252h-.062v-1.694h.064a2.507,2.507,0,0,0,2.365-1.536,2.58,2.58,0,0,0-.238-2.44,2.573,2.573,0,0,0-2.13-1.126,2.959,2.959,0,0,0-.316.019,2.656,2.656,0,0,0-1.463.728,2.544,2.544,0,0,0-.743,1.447,2.561,2.561,0,0,0,.831,2.269v3.2a.864.864,0,0,1,.866.863.862.862,0,0,1-.863.861v23.378c.087-.031.181-.064.282-.1v1.692l-.314.1a9.159,9.159,0,0,0-1.7-1.247v-23.825h-1.693a.858.858,0,0,1-.687-.355.844.844,0,0,1-.112-.762.838.838,0,0,1,.832-.575h1.66v-2.557a3.915,3.915,0,0,1-.768-1.694h-8.694a3.939,3.939,0,0,1-.766,1.694v2.557h5.082a.9.9,0,0,1,.831.574.852.852,0,0,1-.108.77.846.846,0,0,1-.693.349h-5.111v23.825a9.143,9.143,0,0,0-1.693,1.247Zm1.724-34.438a3.911,3.911,0,0,1,.77,1.695h8.691a3.487,3.487,0,0,1,.833-1.695h-1.7a.864.864,0,0,1-.862.863.864.864,0,0,1-.863-.863h-.861a.864.864,0,0,1-.863.863.865.865,0,0,1-.863-.863h-.862a.864.864,0,0,1-.863.863.864.864,0,0,1-.864-.863Zm-2.558-3.508v1.814h15.345v-1.814Z" transform="translate(10414.943 4116.146)" fill="#d7aa7c"/>
            </g>
          </g>
        </g>
        <path id="Polygon_7" data-name="Polygon 7" d="M3.805,0,5.156,2.112l2.455.614L5.994,4.645l.164,2.491L3.805,6.21l-2.352.925.164-2.491L0,2.725l2.455-.614Z" transform="translate(8.981 0)" fill="#d7aa7c"/>
      </g>
    </g>
    <path id="Path_154209" data-name="Path 154209" d="M1.99-16.874H6.283V-17.5c-1.23-.022-1.61-.358-1.61-1.431V-32.182l-4.2.76v.581H.694c.961,0,1.3.335,1.3,1.3Zm14.8-1.475c-.581.313-.714.358-1.006.358-.447,0-.6-.246-.6-.939v-4.785a2.944,2.944,0,0,0-1.744-3.018,6.675,6.675,0,0,0-2.834-.508c-.006,0-1.082.025-1.254.023v.85c.061,0,1.035-.02,1.241,0,1.512.138,1.908.638,1.908,2.474v.671a9.245,9.245,0,0,0-4.091,1.142,3.2,3.2,0,0,0-1.632,2.817A2.793,2.793,0,0,0,9.793-16.7a3.359,3.359,0,0,0,2.884-1.295,1.637,1.637,0,0,0,1.766,1.3,4.642,4.642,0,0,0,2.347-.85ZM12.5-20a1.918,1.918,0,0,1-1.677,1.967c-.714,0-1.185-.671-1.185-1.677a2.257,2.257,0,0,1,.761-1.744,3.924,3.924,0,0,1,2.1-.917Zm15.426,3.4,3.86-10.642H30.533l-2.452,6.8-2.29-6.8H21.948l-.037.8c.961.022,1.408.358,1.833,1.386l-1.7,4.606-2.288-6.8H15.911l-.037.8c1.073.045,1.5.425,1.967,1.744l2.884,8.093H21.91l2.459-6.707,2.37,6.707Z" transform="translate(119.615 536.453)" fill="#0d2354"/>
    <path id="Path_154210" data-name="Path 154210" d="M80.73-16.825h4.293v-.626c-1.207-.022-1.611-.358-1.611-1.341V-23.4c0-2.593-1.008-3.8-3.155-3.8a3.051,3.051,0,0,0-3.105,1.654c-.537-1.23-1.252-1.654-2.795-1.654a3.285,3.285,0,0,0-2.75,1.073v-1.117l-4.152.045v.581h.224c.961,0,1.3.333,1.3,1.3l-.049,8.495h2.683V-23.04c0-1.632.894-2.862,2.079-2.862.85,0,1.142.671,1.142,2.66v6.417h2.684V-23.04c0-1.587.894-2.862,2.012-2.862.939,0,1.207.581,1.207,2.638Zm5.9,0h4.293v-.626c-1.274-.022-1.61-.358-1.61-1.61V-27.2H85.167v.581c1.163.022,1.522.291,1.522,1.207ZM87.8-32.088a1.79,1.79,0,0,0-1.28.54,1.79,1.79,0,0,0-.508,1.293,1.813,1.813,0,0,0,1.811,1.789,1.8,1.8,0,0,0,1.283-.528,1.8,1.8,0,0,0,.528-1.283,1.8,1.8,0,0,0-.533-1.293A1.8,1.8,0,0,0,87.8-32.088ZM98.616-16.825h4.293v-.626c-1.231-.045-1.611-.358-1.611-1.431v-4.695c0-2.392-1.051-3.622-3.108-3.622A3.318,3.318,0,0,0,95.4-26.125V-27.2H91.188v.581c1.185.022,1.522.313,1.522,1.3l0,8.5H95.4v-6.3c0-1.565.917-2.772,2.1-2.772.8,0,1.118.648,1.118,2.325Zm13.833-5.1a5.884,5.884,0,0,0-1.118-3.845,3.889,3.889,0,0,0-3.219-1.431c-3,0-5.053,2.191-5.053,5.388a4.919,4.919,0,0,0,2.593,4.449c.913.518,1.749.691,4.01.714h1.323v-.89c-.087,0-1.124,0-1.357-.015-2.252-.1-3.776-1.776-3.8-4.367Zm-6.618-.939c.045-2.191.714-3.4,1.855-3.4a1.414,1.414,0,0,1,1.185.738,4.771,4.771,0,0,1,.581,2.661Zm13.41-4.337c-.083,0-1.115,0-1.34.012-2.993.1-4.535.951-4.535,2.716a2.8,2.8,0,0,0,.827,2.035,10.079,10.079,0,0,0,3.018,1.855c1.142.581,1.475.917,1.475,1.543a1.536,1.536,0,0,1-1.722,1.5c-1.319,0-2.146-.671-3.108-2.5h-.671l.761,2.862a13.274,13.274,0,0,0,2.953.537c2.415,0,4.2-1.252,4.2-2.973,0-1.632-1.028-2.616-4.114-4.024-1.094-.492-1.475-.85-1.475-1.408,0-.714.771-1.073,2.45-1.266,0,0,1.112-.017,1.279-.03Z" transform="translate(84.494 536.404)" fill="#d7aa7c"/>
  </g>
</svg>
