<svg xmlns="http://www.w3.org/2000/svg" width="40" height="40" viewBox="0 0 40 40">
  <g id="Download" transform="translate(-830 -727)">
    <path id="Path_154612" data-name="Path 154612" d="M20,0A20,20,0,1,1,0,20,20,20,0,0,1,20,0Z" transform="translate(830 727)" fill="#1c1c1c"/>
    <path id="Path_154609" data-name="Path 154609" d="M-10799.751-713.75c-3,0-4.656,0-5.828-1.172s-1.172-2.823-1.172-5.82v-.008a1,1,0,0,1,1-1,1,1,0,0,1,1,1c0,2.549,0,3.83.586,4.415s1.865.586,4.412.586h6c2.547,0,3.827,0,4.413-.586s.586-1.866.586-4.415a1,1,0,0,1,1-1,1,1,0,0,1,1,1c0,3,0,4.657-1.174,5.828s-2.821,1.172-5.812,1.172Zm2.284-6.338-4.229-4.554,1.418-1.418,2.525,2.813v-11.79h2v11.779l2.633-2.981,1.416,1.418-.16.176-4.174,4.556-.716.792Z" transform="translate(11646.5 1470.787)" fill="#fff"/>
  </g>
</svg>
