<svg xmlns="http://www.w3.org/2000/svg" width="52" height="52" viewBox="0 0 52 52">
  <g fill="none" fill-rule="evenodd">
    <circle cx="26" cy="26" r="26" fill="#131415"/>
    <path fill="#FFF" d="M26 13a1.75 1.75 0 0 1 1.75 1.75v15.025l4.302-4.302a1.75 1.75 0 1 1 2.475 2.475l-7.29 7.29a1.75 1.75 0 0 1-2.474 0l-7.29-7.29a1.75 1.75 0 1 1 2.474-2.475l4.303 4.302V14.75A1.75 1.75 0 0 1 26 13Zm-9.5 24.5a1.75 1.75 0 0 1 1.75 1.75v.5h15.5v-.5a1.75 1.75 0 1 1 3.5 0V41a2.25 2.25 0 0 1-2.25 2.25h-18A2.25 2.25 0 0 1 14.75 41v-1.75a1.75 1.75 0 0 1 1.75-1.75Z"/>
  </g>
</svg>
