<svg xmlns="http://www.w3.org/2000/svg" width="440" height="44" viewBox="0 0 440 44">
  <g id="DownloadProfile" transform="translate(-463.595 -719.5)">
    <path id="Path_196835" data-name="Path 196835" d="M-9.905,0H100.5" transform="translate(473.5 741.5)" fill="none" stroke="#707070" stroke-width="0.5" opacity="0.5"/>
    <path id="Path_196836" data-name="Path 196836" d="M0,0H110.193" transform="translate(793.401 741.5)" fill="none" stroke="#707070" stroke-width="0.5" opacity="0.5"/>
    <g id="Button" transform="translate(198.944 223.5)">
      <path id="Path_196832" data-name="Path 196832" d="M9.654,0H184.386c5.332,0,9.654,4.925,9.654,11V33c0,6.075-4.322,11-9.654,11H9.654C4.322,44,0,39.075,0,33V11C0,4.925,4.322,0,9.654,0Z" transform="translate(387.63 496)" fill="#141415"/>
      <g id="Group_157497" data-name="Group 157497" transform="translate(405.556 506.56)">
        <path id="Path_196825" data-name="Path 196825" d="M29.288,21.262c-1.71-1.876-6.37-1.055-7.5-.938a25.858,25.858,0,0,1-3.178-4.207A18.77,18.77,0,0,0,19.641,10.5c0-1.759-.684-3.5-2.494-3.5a1.81,1.81,0,0,0-1.6.938c-.8,1.407-.456,4.207.8,7.124a47.2,47.2,0,0,1-3.178,7.71c-1.824.7-5.8,2.565-6.142,4.676A1.751,1.751,0,0,0,7.6,29.09a2.1,2.1,0,0,0,1.6.586c2.38,0,4.774-3.386,6.484-6.435a35.85,35.85,0,0,1,5.686-1.524A8.674,8.674,0,0,0,27.279,24.4c1.6,0,2.166-.7,2.38-1.29A1.7,1.7,0,0,0,29.288,21.262Zm-1.6,1.173c-.114.469-.684.938-1.71.7A8.181,8.181,0,0,1,22.69,21.38a15.074,15.074,0,0,1,4.09-.117A1.058,1.058,0,0,1,27.692,22.435ZM16.662,8.407a.625.625,0,0,1,.57-.352c.57,0,.684.7.684,1.29a17.136,17.136,0,0,1-.8,4.207C16.206,10.987,16.32,9.111,16.662,8.407Zm-.114,13.207a28.454,28.454,0,0,0,1.482-3.738,20.53,20.53,0,0,0,2.052,2.8A16.914,16.914,0,0,0,16.548,21.614Zm-3.862,2.7c-1.582,2.565-3.064,4.207-3.976,4.207a.671.671,0,0,1-.456-.117.794.794,0,0,1-.114-.7C8.255,26.759,10.079,25.469,12.686,24.311Z" transform="translate(-7 -7)" fill="#ce9722"/>
        <path id="Path_196826" data-name="Path 196826" d="M1.485-1.642V-12.9H4.664a5.117,5.117,0,0,1,2.6.65,4.394,4.394,0,0,1,1.744,1.849A6.017,6.017,0,0,1,9.63-7.652v.719A6.038,6.038,0,0,1,9.015-4.14,4.325,4.325,0,0,1,7.259-2.3,5.443,5.443,0,0,1,4.6-1.642ZM2.97-11.681v8.825H4.533A3.4,3.4,0,0,0,7.2-3.924a4.407,4.407,0,0,0,.955-3.04v-.657a4.477,4.477,0,0,0-.9-2.982A3.208,3.208,0,0,0,4.7-11.681Zm8.3,5.778a4.943,4.943,0,0,1,.483-2.212A3.606,3.606,0,0,1,13.1-9.632a3.663,3.663,0,0,1,1.968-.534,3.529,3.529,0,0,1,2.765,1.183,4.553,4.553,0,0,1,1.056,3.148v.1a4.986,4.986,0,0,1-.468,2.193,3.553,3.553,0,0,1-1.338,1.512,3.705,3.705,0,0,1-2,.541,3.52,3.52,0,0,1-2.757-1.183A4.53,4.53,0,0,1,11.269-5.8Zm1.439.17A3.58,3.58,0,0,0,13.354-3.5a2.067,2.067,0,0,0,1.729.843,2.054,2.054,0,0,0,1.733-.855A3.915,3.915,0,0,0,17.457-5.9,3.574,3.574,0,0,0,16.8-8.135a2.078,2.078,0,0,0-1.736-.855,2.055,2.055,0,0,0-1.709.843A3.886,3.886,0,0,0,12.708-5.734ZM28.092-3.614l1.609-6.4h1.431L28.695-1.642h-1.16L25.5-7.984l-1.98,6.342H22.36l-2.429-8.369h1.423L23-3.746l1.949-6.265H26.1Zm5.847-6.4.046,1.052a3.05,3.05,0,0,1,2.506-1.207q2.653,0,2.676,2.993v5.53H37.736V-7.18a1.927,1.927,0,0,0-.414-1.338,1.658,1.658,0,0,0-1.265-.433,2.065,2.065,0,0,0-1.222.371,2.521,2.521,0,0,0-.82.975v5.963H32.585v-8.369ZM42.88-1.642H41.449v-11.88H42.88ZM44.79-5.9a4.943,4.943,0,0,1,.483-2.212,3.606,3.606,0,0,1,1.346-1.516,3.663,3.663,0,0,1,1.968-.534,3.529,3.529,0,0,1,2.765,1.183,4.553,4.553,0,0,1,1.056,3.148v.1a4.986,4.986,0,0,1-.468,2.193A3.553,3.553,0,0,1,50.6-2.029a3.705,3.705,0,0,1-2,.541,3.52,3.52,0,0,1-2.757-1.183A4.53,4.53,0,0,1,44.79-5.8Zm1.439.17A3.58,3.58,0,0,0,46.875-3.5a2.067,2.067,0,0,0,1.729.843,2.054,2.054,0,0,0,1.732-.855A3.915,3.915,0,0,0,50.978-5.9a3.574,3.574,0,0,0-.654-2.231,2.078,2.078,0,0,0-1.736-.855,2.055,2.055,0,0,0-1.709.843A3.886,3.886,0,0,0,46.229-5.734ZM59.369-1.642a3.006,3.006,0,0,1-.2-.882,3.193,3.193,0,0,1-2.382,1.036,2.954,2.954,0,0,1-2.03-.7,2.265,2.265,0,0,1-.793-1.775,2.366,2.366,0,0,1,.994-2.03,4.686,4.686,0,0,1,2.8-.723h1.392v-.657A1.607,1.607,0,0,0,58.7-8.568a1.8,1.8,0,0,0-1.323-.445,2.086,2.086,0,0,0-1.284.387,1.14,1.14,0,0,0-.518.936H54.133a1.975,1.975,0,0,1,.445-1.21,3.035,3.035,0,0,1,1.207-.924,4.059,4.059,0,0,1,1.674-.34,3.308,3.308,0,0,1,2.266.723,2.609,2.609,0,0,1,.851,1.992V-3.6a4.709,4.709,0,0,0,.294,1.833v.124ZM56.995-2.733a2.515,2.515,0,0,0,1.276-.348,2.105,2.105,0,0,0,.874-.9V-5.7H58.024q-2.63,0-2.63,1.539a1.3,1.3,0,0,0,.449,1.052A1.724,1.724,0,0,0,56.995-2.733ZM62.471-5.9a4.9,4.9,0,0,1,.913-3.1,2.886,2.886,0,0,1,2.39-1.172A2.9,2.9,0,0,1,68.1-9.16v-4.362h1.431v11.88H68.218l-.07-.9a2.914,2.914,0,0,1-2.39,1.052,2.858,2.858,0,0,1-2.371-1.191,4.958,4.958,0,0,1-.917-3.109Zm1.431.162a3.712,3.712,0,0,0,.588,2.228,1.9,1.9,0,0,0,1.624.8A2.087,2.087,0,0,0,68.1-3.924V-7.768a2.1,2.1,0,0,0-1.972-1.183,1.909,1.909,0,0,0-1.64.812A4.087,4.087,0,0,0,63.9-5.734Zm14.015.124v3.968H75.6V-12.9h4.393a5.083,5.083,0,0,1,2.231.464A3.42,3.42,0,0,1,83.7-11.121a3.677,3.677,0,0,1,.518,1.945,3.233,3.233,0,0,1-1.133,2.61,4.719,4.719,0,0,1-3.136.955Zm0-1.879h2.073a2.038,2.038,0,0,0,1.4-.433,1.575,1.575,0,0,0,.483-1.237,1.857,1.857,0,0,0-.487-1.338,1.82,1.82,0,0,0-1.346-.526H77.916Zm12.452-.425a6.072,6.072,0,0,0-.8-.062,1.637,1.637,0,0,0-1.663.859v5.476H85.666v-8.369h2.111l.062,1A2.071,2.071,0,0,1,89.7-10.165a2.342,2.342,0,0,1,.7.1ZM90.817-5.9a4.963,4.963,0,0,1,.48-2.22,3.51,3.51,0,0,1,1.381-1.508,4.028,4.028,0,0,1,2.092-.534,3.811,3.811,0,0,1,2.765,1.036A4.16,4.16,0,0,1,98.73-6.314l.015.572a4.374,4.374,0,0,1-1.075,3.09,3.737,3.737,0,0,1-2.885,1.164A3.756,3.756,0,0,1,91.9-2.648,4.451,4.451,0,0,1,90.817-5.8Zm2.235.162A3.12,3.12,0,0,0,93.5-3.92a1.481,1.481,0,0,0,1.284.63,1.484,1.484,0,0,0,1.268-.623A3.414,3.414,0,0,0,96.51-5.9a3.089,3.089,0,0,0-.456-1.81,1.484,1.484,0,0,0-1.284-.642,1.46,1.46,0,0,0-1.268.638A3.471,3.471,0,0,0,93.053-5.741Zm7.611,4.1V-8.371H99.418v-1.64h1.245V-10.4a3.138,3.138,0,0,1,.971-2.432,3.905,3.905,0,0,1,2.7-.855,8.941,8.941,0,0,1,2.537.456l-.325,1.849a9.9,9.9,0,0,0-1.176-.29,5.776,5.776,0,0,0-.9-.066q-1.562,0-1.562,1.384v.34h1.647v1.64h-1.647v6.729Zm7.247,0h-2.243v-8.369h2.243Zm4.207,0h-2.243v-11.88h2.243Zm5.693.155a4.108,4.108,0,0,1-3-1.129,4.014,4.014,0,0,1-1.156-3.009v-.217a5.055,5.055,0,0,1,.487-2.255,3.576,3.576,0,0,1,1.381-1.531,3.875,3.875,0,0,1,2.038-.538,3.473,3.473,0,0,1,2.7,1.083,4.4,4.4,0,0,1,.986,3.071V-5.1h-5.329a2.076,2.076,0,0,0,.654,1.315,1.976,1.976,0,0,0,1.381.5,2.413,2.413,0,0,0,2.019-.936l1.1,1.23a3.355,3.355,0,0,1-1.361,1.11A4.466,4.466,0,0,1,117.81-1.487Zm-.255-6.868a1.4,1.4,0,0,0-1.079.449,2.318,2.318,0,0,0-.53,1.284h3.109V-6.8a1.652,1.652,0,0,0-.4-1.149A1.445,1.445,0,0,0,117.555-8.356Z" transform="translate(35.902 19.243)" fill="#fff"/>
      </g>
    </g>
  </g>
</svg>
