<svg id="ExchangeContact" xmlns="http://www.w3.org/2000/svg" width="189.2" height="44" viewBox="0 0 189.2 44">
  <path id="Path_214821" data-name="Path 214821" d="M10,0H179.2a10,10,0,0,1,10,10V34a10,10,0,0,1-10,10H10A10,10,0,0,1,0,34V10A10,10,0,0,1,10,0Z" fill="#020717"/>
  <g id="exchange-svgrepo-com" transform="translate(42.072 6.661) rotate(90)">
    <path id="Path_214544" data-name="Path 214544" d="M-16495.82,14455.362l-9.488-7.425h17.086v3.8h-7.594Zm12.793-10.123h-17.08v-3.8h7.59v-3.63l9.486,7.425Z" transform="translate(16510 -14428)" fill="#ce9115"/>
  </g>
  <path id="Path_214555" data-name="Path 214555" d="M8.351-5.238H3.569V-2H9.181V0h-8.1V-12.086H9.164v2.017H3.569v2.88H8.351Zm5.3-1.062L15.16-8.981h2.565l-2.557,4.4L17.832,0H15.259l-1.6-2.822L12.063,0H9.482l2.665-4.582L9.6-8.981h2.573Zm8.544,4.532a1.573,1.573,0,0,0,1.079-.365A1.28,1.28,0,0,0,23.7-3.1h2.25a3.077,3.077,0,0,1-.5,1.673A3.286,3.286,0,0,1,24.114-.253a4.2,4.2,0,0,1-1.88.419A3.9,3.9,0,0,1,19.2-1.058a4.845,4.845,0,0,1-1.112-3.383V-4.6a4.79,4.79,0,0,1,1.1-3.312,3.854,3.854,0,0,1,3.03-1.237,3.778,3.778,0,0,1,2.7.959,3.4,3.4,0,0,1,1.033,2.552H23.7a1.635,1.635,0,0,0-.432-1.133,1.443,1.443,0,0,0-1.1-.436,1.446,1.446,0,0,0-1.266.61,3.532,3.532,0,0,0-.427,1.98v.249a3.576,3.576,0,0,0,.423,1.992A1.464,1.464,0,0,0,22.193-1.768ZM29.408-8a2.994,2.994,0,0,1,2.4-1.146q2.922,0,2.963,3.4V0h-2.4V-5.686a1.669,1.669,0,0,0-.332-1.141,1.423,1.423,0,0,0-1.1-.369,1.633,1.633,0,0,0-1.527.813V0h-2.4V-12.75h2.4ZM41.53,0a2.664,2.664,0,0,1-.241-.805,2.9,2.9,0,0,1-2.266.971A3.189,3.189,0,0,1,36.836-.6a2.456,2.456,0,0,1-.867-1.926,2.538,2.538,0,0,1,1.058-2.191,5.222,5.222,0,0,1,3.059-.772h1.1V-6a1.48,1.48,0,0,0-.32-1,1.257,1.257,0,0,0-1.009-.374,1.429,1.429,0,0,0-.95.291.987.987,0,0,0-.344.8h-2.4a2.41,2.41,0,0,1,.481-1.444A3.182,3.182,0,0,1,38.01-8.77a4.961,4.961,0,0,1,1.976-.378,3.92,3.92,0,0,1,2.635.834A2.918,2.918,0,0,1,43.6-5.968v3.893a4.294,4.294,0,0,0,.357,1.934V0ZM39.546-1.668a2.066,2.066,0,0,0,.979-.237,1.554,1.554,0,0,0,.664-.635V-4.084h-.9q-1.8,0-1.917,1.245l-.008.141a.96.96,0,0,0,.315.739A1.225,1.225,0,0,0,39.546-1.668Zm7.847-7.313.075,1.038a3.136,3.136,0,0,1,2.582-1.2,2.606,2.606,0,0,1,2.125.838A3.912,3.912,0,0,1,52.888-5.8V0h-2.4V-5.744a1.556,1.556,0,0,0-.332-1.108,1.486,1.486,0,0,0-1.1-.344,1.65,1.65,0,0,0-1.519.863V0h-2.4V-8.981ZM54.1-4.557a5.264,5.264,0,0,1,.984-3.329,3.187,3.187,0,0,1,2.652-1.262,2.8,2.8,0,0,1,2.3,1.013l.1-.847h2.175V-.3a3.839,3.839,0,0,1-.535,2.05A3.439,3.439,0,0,1,60.269,3.08a5.3,5.3,0,0,1-2.274.457,4.925,4.925,0,0,1-1.926-.394A3.418,3.418,0,0,1,54.65,2.125L55.712.664a2.81,2.81,0,0,0,2.175,1,2.057,2.057,0,0,0,1.486-.51A1.915,1.915,0,0,0,59.9-.291V-.772a2.775,2.775,0,0,1-2.183.938A3.179,3.179,0,0,1,55.1-1.1a5.262,5.262,0,0,1-1-3.358Zm2.4.174a3.269,3.269,0,0,0,.49,1.913,1.559,1.559,0,0,0,1.345.693A1.666,1.666,0,0,0,59.9-2.6V-6.375A1.663,1.663,0,0,0,58.352-7.2a1.568,1.568,0,0,0-1.357.706A3.684,3.684,0,0,0,56.5-4.383ZM68.033.166a4.409,4.409,0,0,1-3.217-1.212,4.308,4.308,0,0,1-1.241-3.229v-.232a5.426,5.426,0,0,1,.523-2.42A3.838,3.838,0,0,1,65.58-8.571a4.159,4.159,0,0,1,2.187-.577,3.727,3.727,0,0,1,2.9,1.162,4.722,4.722,0,0,1,1.058,3.3v.979H66.007a2.229,2.229,0,0,0,.7,1.411,2.12,2.12,0,0,0,1.482.531,2.589,2.589,0,0,0,2.167-1l1.179,1.32A3.6,3.6,0,0,1,70.075-.261,4.793,4.793,0,0,1,68.033.166Zm-.274-7.371a1.5,1.5,0,0,0-1.158.481,2.487,2.487,0,0,0-.569,1.378h3.337v-.191a1.773,1.773,0,0,0-.432-1.233A1.55,1.55,0,0,0,67.759-7.205Zm18.4,3.37A4.447,4.447,0,0,1,84.743-.876,4.638,4.638,0,0,1,81.576.166,4.259,4.259,0,0,1,78.144-1.37a6.178,6.178,0,0,1-1.291-4.109V-6.641a6.886,6.886,0,0,1,.6-2.963,4.5,4.5,0,0,1,1.706-1.963,4.75,4.75,0,0,1,2.557-.685,4.367,4.367,0,0,1,3.088,1.075A4.5,4.5,0,0,1,86.158-8.2h-1.6a3.457,3.457,0,0,0-.9-2.092,2.73,2.73,0,0,0-1.938-.647,2.852,2.852,0,0,0-2.395,1.129A5.179,5.179,0,0,0,78.455-6.6v1.17A5.324,5.324,0,0,0,79.277-2.3a2.656,2.656,0,0,0,2.3,1.162,3.067,3.067,0,0,0,2.038-.6,3.34,3.34,0,0,0,.942-2.1Zm1.272-.739a5.3,5.3,0,0,1,.519-2.374,3.87,3.87,0,0,1,1.444-1.627,3.932,3.932,0,0,1,2.113-.573,3.788,3.788,0,0,1,2.968,1.27A4.886,4.886,0,0,1,95.607-4.5v.108a5.351,5.351,0,0,1-.5,2.353A3.813,3.813,0,0,1,93.669-.415a3.977,3.977,0,0,1-2.146.581A3.778,3.778,0,0,1,88.564-1.1,4.861,4.861,0,0,1,87.43-4.466Zm1.544.183a3.842,3.842,0,0,0,.693,2.4,2.218,2.218,0,0,0,1.855.9A2.2,2.2,0,0,0,93.382-2a4.2,4.2,0,0,0,.689-2.569,3.836,3.836,0,0,0-.7-2.395,2.23,2.23,0,0,0-1.864-.917,2.205,2.205,0,0,0-1.834.9A4.17,4.17,0,0,0,88.974-4.391Zm9.756-4.59.05,1.129a3.273,3.273,0,0,1,2.689-1.295q2.847,0,2.872,3.212V0h-1.536V-5.943a2.068,2.068,0,0,0-.444-1.436A1.78,1.78,0,0,0,101-7.844a2.216,2.216,0,0,0-1.312.4,2.706,2.706,0,0,0-.88,1.046V0H97.278V-8.981Zm9.756-2.175v2.175h1.677v1.187h-1.677v5.57a1.244,1.244,0,0,0,.224.809.944.944,0,0,0,.764.27,3.718,3.718,0,0,0,.73-.1V0a4.452,4.452,0,0,1-1.179.166,1.912,1.912,0,0,1-1.552-.623,2.675,2.675,0,0,1-.523-1.768v-5.57h-1.635V-8.981h1.635v-2.175ZM117.246,0a3.226,3.226,0,0,1-.216-.946A3.426,3.426,0,0,1,114.473.166a3.17,3.17,0,0,1-2.179-.751,2.43,2.43,0,0,1-.851-1.905,2.539,2.539,0,0,1,1.067-2.179,5.029,5.029,0,0,1,3-.776H117v-.706a1.725,1.725,0,0,0-.481-1.282,1.935,1.935,0,0,0-1.419-.477,2.239,2.239,0,0,0-1.378.415,1.223,1.223,0,0,0-.556,1h-1.544a2.119,2.119,0,0,1,.477-1.3,3.258,3.258,0,0,1,1.295-.992,4.356,4.356,0,0,1,1.8-.365,3.551,3.551,0,0,1,2.432.776,2.8,2.8,0,0,1,.913,2.137V-2.1a5.054,5.054,0,0,0,.315,1.967V0ZM114.7-1.17a2.7,2.7,0,0,0,1.37-.374A2.259,2.259,0,0,0,117-2.515V-4.358h-1.2q-2.822,0-2.822,1.652a1.4,1.4,0,0,0,.481,1.129A1.85,1.85,0,0,0,114.7-1.17Zm9.6.083a2.212,2.212,0,0,0,1.436-.5,1.752,1.752,0,0,0,.681-1.245h1.453a2.785,2.785,0,0,1-.531,1.469,3.5,3.5,0,0,1-1.307,1.112A3.772,3.772,0,0,1,124.3.166a3.7,3.7,0,0,1-2.918-1.224,4.877,4.877,0,0,1-1.083-3.349v-.257A5.407,5.407,0,0,1,120.776-7a3.667,3.667,0,0,1,1.382-1.585,3.926,3.926,0,0,1,2.129-.564,3.6,3.6,0,0,1,2.511.9,3.234,3.234,0,0,1,1.067,2.349h-1.453a2.116,2.116,0,0,0-.66-1.432,2.053,2.053,0,0,0-1.465-.56,2.149,2.149,0,0,0-1.814.843,3.957,3.957,0,0,0-.643,2.436v.291a3.878,3.878,0,0,0,.639,2.391A2.16,2.16,0,0,0,124.3-1.087Zm7.124-10.069v2.175H133.1v1.187H131.42v5.57a1.244,1.244,0,0,0,.224.809.944.944,0,0,0,.764.27,3.718,3.718,0,0,0,.73-.1V0a4.452,4.452,0,0,1-1.179.166,1.912,1.912,0,0,1-1.552-.623,2.675,2.675,0,0,1-.523-1.768v-5.57h-1.635V-8.981h1.635v-2.175Z" transform="translate(41.4 28.5)" fill="#fff"/>
</svg>
