<svg xmlns="http://www.w3.org/2000/svg" xmlns:xlink="http://www.w3.org/1999/xlink" width="80" height="80" viewBox="0 0 80 80">
  <defs>
    <clipPath id="clip-path">
      <path id="shield-police-svgrepo-com" d="M35.548,81.92a1.325,1.325,0,0,0,.9,0C40.336,80.6,68,70.072,68,39.012v-27.8A1.6,1.6,0,0,0,66.79,9.659l-30.4-7.611a1.6,1.6,0,0,0-.778,0L5.211,9.66A1.6,1.6,0,0,0,4,11.217V39.008C4,69.757,31.676,80.556,35.548,81.92Z" transform="translate(-4 -2)" fill="#0d2354"/>
    </clipPath>
  </defs>
  <g id="Group_157471" data-name="Group 157471" transform="translate(-1114.988 -610.501)">
    <g id="Rectangle_1131" data-name="Rectangle 1131" transform="translate(1114.987 610.501)" fill="#fff" stroke="#707070" stroke-width="1" opacity="0">
      <rect width="80" height="80" stroke="none"/>
      <rect x="0.5" y="0.5" width="79" height="79" fill="none"/>
    </g>
    <g id="Group_157811" data-name="Group 157811" transform="translate(1045.893 120.501)">
      <path id="shield-police-svgrepo-com-2" data-name="shield-police-svgrepo-com" d="M35.548,81.92a1.325,1.325,0,0,0,.9,0C40.336,80.6,68,70.072,68,39.012v-27.8A1.6,1.6,0,0,0,66.79,9.659l-30.4-7.611a1.6,1.6,0,0,0-.778,0L5.211,9.66A1.6,1.6,0,0,0,4,11.217V39.008C4,69.757,31.676,80.556,35.548,81.92Z" transform="translate(73.095 488)" fill="#0d2354" fill-rule="evenodd"/>
      <g id="Mask_Group_3" data-name="Mask Group 3" transform="translate(77.095 490)" clip-path="url(#clip-path)">
        <g id="Group_23314" data-name="Group 23314" transform="translate(8.67 5.189)">
          <g id="Group_23316" data-name="Group 23316" transform="translate(0 18.165)">
            <g id="courtroom_logo" transform="translate(0 0)">
              <g id="Group_23310" data-name="Group 23310">
                <path id="Path_154198" data-name="Path 154198" d="M144.834,70.616a1.521,1.521,0,0,0,1.046-1.511V67.652a1.521,1.521,0,0,0-1.046-1.511,1.545,1.545,0,0,0-2.034,1.453v1.569a1.571,1.571,0,0,0,2.034,1.454Z" transform="translate(-115.426 -48.724)" fill="#d7aa7c"/>
                <path id="Path_154199" data-name="Path 154199" d="M134.669,87.3a1.487,1.487,0,0,0-1.569,1.352v38.4a9.169,9.169,0,0,1,1.569-.087,8.184,8.184,0,0,1,1.511.087v-38.4A1.47,1.47,0,0,0,134.669,87.3Z" transform="translate(-111.364 -57.62)" fill="#d7aa7c"/>
                <path id="Path_154200" data-name="Path 154200" d="M142.758,126.945a14.883,14.883,0,0,1,3.08,1.5V88.628a1.591,1.591,0,0,0-3.139,0v38.314Z" transform="translate(-115.384 -57.62)" fill="#d7aa7c"/>
                <path id="Path_154201" data-name="Path 154201" d="M124.969,87.3a1.478,1.478,0,0,0-1.569,1.328v39.763a14.876,14.876,0,0,1,3.08-1.506V88.628a1.384,1.384,0,0,0-1.511-1.328Z" transform="translate(-107.301 -57.619)" fill="#d7aa7c"/>
                <path id="Path_154202" data-name="Path 154202" d="M123.4,67.6v1.511a1.521,1.521,0,0,0,1.046,1.511,1.546,1.546,0,0,0,2.034-1.453V67.655a1.54,1.54,0,1,0-3.08-.058Z" transform="translate(-107.3 -48.725)" fill="#d7aa7c"/>
                <path id="Path_154204" data-name="Path 154204" d="M133.1,67.6v1.511a1.521,1.521,0,0,0,1.047,1.511,1.546,1.546,0,0,0,2.034-1.453V67.655a1.54,1.54,0,1,0-3.08-.058Z" transform="translate(-111.363 -48.725)" fill="#d7aa7c"/>
                <path id="Path_154207" data-name="Path 154207" d="M-10404.071-4044.02h0l-.1-.035c-.176-.058-.35-.116-.516-.173v-3.074l.092.033.055.02c.129.05.266.1.41.151V-4089.6a1.574,1.574,0,0,1-1.57-1.566,1.573,1.573,0,0,1,1.57-1.57v-5.812a4.584,4.584,0,0,0,1.566-3.486,4.637,4.637,0,0,0-4.643-4.627,4.745,4.745,0,0,0-.934.094,4.574,4.574,0,0,0-3.6,3.6,4.652,4.652,0,0,0,.969,3.883,4.593,4.593,0,0,0,3.564,1.7h.111v3.079h-.111a7.669,7.669,0,0,1-5.455-2.253,7.659,7.659,0,0,1-2.277-5.476,7.751,7.751,0,0,1,6.219-7.612v-3.417a3.073,3.073,0,0,1,.91-2.171,3.054,3.054,0,0,1,2.174-.907h27.895a3.058,3.058,0,0,1,2.172.907,3.068,3.068,0,0,1,.908,2.171l0,3.417a7.853,7.853,0,0,1,6.221,7.612,7.746,7.746,0,0,1-7.736,7.73h-.111v-3.08h.117a4.558,4.558,0,0,0,4.3-2.792,4.691,4.691,0,0,0-.434-4.436,4.679,4.679,0,0,0-3.873-2.049,5.331,5.331,0,0,0-.574.034,4.829,4.829,0,0,0-2.66,1.323,4.618,4.618,0,0,0-1.352,2.63,4.656,4.656,0,0,0,1.512,4.126v5.813a1.571,1.571,0,0,1,1.574,1.569,1.568,1.568,0,0,1-1.57,1.566v42.505c.158-.056.33-.116.514-.187v3.076c-.191.065-.381.127-.572.191a16.668,16.668,0,0,0-3.082-2.268V-4089.6h-3.078a1.558,1.558,0,0,1-1.248-.646,1.536,1.536,0,0,1-.205-1.385,1.526,1.526,0,0,1,1.514-1.045h3.018v-4.65a7.1,7.1,0,0,1-1.395-3.079h-15.809a7.153,7.153,0,0,1-1.393,3.079v4.65h9.24a1.631,1.631,0,0,1,1.512,1.044,1.547,1.547,0,0,1-.2,1.4,1.535,1.535,0,0,1-1.26.635h-9.295v43.318a16.614,16.614,0,0,0-3.078,2.267Zm3.135-62.614a7.1,7.1,0,0,1,1.4,3.082h15.8a6.342,6.342,0,0,1,1.514-3.082h-3.082a1.571,1.571,0,0,1-1.566,1.57,1.57,1.57,0,0,1-1.57-1.57h-1.566a1.572,1.572,0,0,1-1.57,1.57,1.574,1.574,0,0,1-1.568-1.57h-1.568a1.571,1.571,0,0,1-1.568,1.57,1.571,1.571,0,0,1-1.572-1.57Zm-4.65-6.379v3.3h27.9v-3.3Z" transform="translate(10414.942 4116.146)" fill="#d7aa7c"/>
              </g>
            </g>
          </g>
          <path id="Polygon_7" data-name="Polygon 7" d="M6.919,0,9.375,3.839l4.463,1.116L10.9,8.445l.3,4.528L6.919,11.291,2.643,12.973l.3-4.528L0,4.955,4.463,3.839Z" transform="translate(16.329 0)" fill="#d7aa7c"/>
        </g>
      </g>
    </g>
  </g>
</svg>
