<svg xmlns="http://www.w3.org/2000/svg" width="22" height="21.999" viewBox="0 0 22 21.999">
  <g id="global" transform="translate(-1.247 -1.25)">
    <path id="Path_153623" data-name="Path 153623" d="M12.249,1.25a11,11,0,1,1-4.209.837,11,11,0,0,1,4.209-.837Zm0,20.462A9.464,9.464,0,1,0,8.627,21a9.464,9.464,0,0,0,3.622.716Z" transform="translate(0 0)" fill="#1c274c"/>
    <path id="Path_153624" data-name="Path 153624" d="M12.11,1.25a2.967,2.967,0,0,1,2.118,1.013,7.592,7.592,0,0,1,1.489,2.466,16.828,16.828,0,0,1,.932,3.479,24.81,24.81,0,0,1,.321,4.041,24.809,24.809,0,0,1-.322,4.04,16.827,16.827,0,0,1-.932,3.479,7.592,7.592,0,0,1-1.489,2.466,2.967,2.967,0,0,1-2.118,1.013,2.967,2.967,0,0,1-2.118-1.013A7.593,7.593,0,0,1,8.5,19.767a16.834,16.834,0,0,1-.932-3.479,25.527,25.527,0,0,1,0-8.083A16.833,16.833,0,0,1,8.5,4.728a7.593,7.593,0,0,1,1.49-2.465A2.967,2.967,0,0,1,12.11,1.25Zm0,20.462a1.477,1.477,0,0,0,1.014-.544,6.194,6.194,0,0,0,1.167-1.97,15.3,15.3,0,0,0,.843-3.159,23.271,23.271,0,0,0,.3-3.791,23.273,23.273,0,0,0-.3-3.786A15.3,15.3,0,0,0,14.291,5.3a6.194,6.194,0,0,0-1.167-1.97,1.477,1.477,0,0,0-1.014-.549,1.477,1.477,0,0,0-1.014.544A6.194,6.194,0,0,0,9.929,5.3a15.31,15.31,0,0,0-.843,3.165,23.994,23.994,0,0,0,0,7.579A15.31,15.31,0,0,0,9.929,19.2a6.194,6.194,0,0,0,1.167,1.97A1.477,1.477,0,0,0,12.11,21.712Z" transform="translate(0.139 0)" fill="#1c274c"/>
    <path id="Path_153625" data-name="Path 153625" d="M22.48,12.785H2.017a.767.767,0,1,1,0-1.535H22.48a.767.767,0,1,1,0,1.535Z" transform="translate(0 0.231)" fill="#1c274c"/>
  </g>
</svg>
