<svg id="Google_Maps_icon__2020_" data-name="Google_Maps_icon_(2020)" xmlns="http://www.w3.org/2000/svg" width="34.894" height="50" viewBox="0 0 34.894 50">
  <path id="Path_213657" data-name="Path 213657" d="M29.456.831A17.654,17.654,0,0,0,24.131,0,17.4,17.4,0,0,0,10.8,6.231l8.233,6.911Z" transform="translate(-6.721)" fill="#1a73e8"/>
  <path id="Path_213658" data-name="Path 213658" d="M4.079,16.5A17.428,17.428,0,0,0,0,27.678a19.269,19.269,0,0,0,1.737,8.308L12.311,23.411Z" transform="translate(0 -10.269)" fill="#ea4335"/>
  <path id="Path_213659" data-name="Path 213659" d="M37.736,12.132a6.671,6.671,0,0,1,5.1,10.989s5.249-6.269,10.385-12.349A17.4,17.4,0,0,0,43.023,2.2L32.6,14.511a6.774,6.774,0,0,1,5.136-2.379" transform="translate(-20.289 -1.369)" fill="#4285f4"/>
  <path id="Path_213660" data-name="Path 213660" d="M20.31,45.752a6.672,6.672,0,0,1-6.684-6.684A6.5,6.5,0,0,1,15.174,34.8L4.6,47.376c1.813,4,4.834,7.251,7.931,11.292L25.408,43.373a6.63,6.63,0,0,1-5.1,2.379" transform="translate(-2.863 -21.658)" fill="#fbbc04"/>
  <path id="Path_213661" data-name="Path 213661" d="M38.251,56.735c5.816-9.1,12.576-13.218,12.576-23.792A17.465,17.465,0,0,0,48.863,24.9L25.6,52.506c.982,1.284,2,2.757,2.983,4.267,3.55,5.476,2.568,8.724,4.834,8.724s1.284-3.285,4.834-8.761" transform="translate(-15.932 -15.497)" fill="#34a853"/>
</svg>
