<svg xmlns="http://www.w3.org/2000/svg" width="24" height="24" viewBox="0 0 24 24">
  <path id="Instagram" d="M-9937,24a11.922,11.922,0,0,1-8.485-3.515A11.921,11.921,0,0,1-9949,12a11.921,11.921,0,0,1,3.515-8.485A11.922,11.922,0,0,1-9937,0a11.922,11.922,0,0,1,8.485,3.515A11.921,11.921,0,0,1-9925,12a11.921,11.921,0,0,1-3.515,8.485A11.922,11.922,0,0,1-9937,24Zm0-17a5.005,5.005,0,0,0-5,5,5.007,5.007,0,0,0,5,5,5.006,5.006,0,0,0,5-5A5,5,0,0,0-9937,7Zm5.8-2.444a1.251,1.251,0,0,0-1.248,1.251,1.249,1.249,0,0,0,1.248,1.248,1.251,1.251,0,0,0,1.251-1.248A1.253,1.253,0,0,0-9931.2,4.557Z" transform="translate(9949)" fill="#da066e"/>
</svg>
