<svg id="Group_157803" data-name="Group 157803" xmlns="http://www.w3.org/2000/svg" width="34.991" height="40" viewBox="0 0 34.991 40">
  <path id="_10612584" data-name="10612584" d="M236.568,186.843,233.6,175.154a2.347,2.347,0,0,0-2.28-1.871,2.644,2.644,0,0,0-1.111.254l-5.29,2.442-5.706,2.678-11.093-5.12a2.647,2.647,0,0,0-1.11-.254,2.347,2.347,0,0,0-2.28,1.871l-2.964,11.689c-.291,1.148.093,1.829.89,1.829a2.375,2.375,0,0,0,1.022-.281h0l5.814-2.872a2.386,2.386,0,0,1,1.02-.288c.743,0,1.032.653.645,1.761l-4.11,11.759-4.11,11.759a1.957,1.957,0,0,0,1.969,2.773h5.442a3.924,3.924,0,0,0,3.626-2.857l3.354-13.959,1.837-7.643,1.836,7.644,3.354,13.959a3.924,3.924,0,0,0,3.625,2.857h5.442a1.958,1.958,0,0,0,1.969-2.774l-4.11-11.759-4.11-11.759c-.387-1.109-.1-1.761.645-1.761a2.384,2.384,0,0,1,1.02.288l5.814,2.872h0a2.364,2.364,0,0,0,1.022.281c.8,0,1.182-.68.891-1.828Z" transform="translate(-201.674 -173.283)"/>
</svg>
