<svg xmlns="http://www.w3.org/2000/svg" width="44" height="44" viewBox="0 0 44 44">
  <g id="acrobat-reader-svgrepo-com" transform="translate(-2 -2)">
    <path id="Path_195117" data-name="Path 195117" d="M2,17.924C2,12.35,2,9.563,3.085,7.434A9.952,9.952,0,0,1,7.434,3.085C9.563,2,12.35,2,17.924,2H30.076c5.574,0,8.361,0,10.49,1.085a9.952,9.952,0,0,1,4.349,4.349C46,9.563,46,12.35,46,17.924V30.076c0,5.574,0,8.361-1.085,10.49a9.953,9.953,0,0,1-4.349,4.349C38.437,46,35.65,46,30.076,46H17.924c-5.574,0-8.361,0-10.49-1.085a9.952,9.952,0,0,1-4.349-4.349C2,38.437,2,35.65,2,30.076Z" transform="translate(0 0)" fill="#131415"/>
    <path id="Path_195118" data-name="Path 195118" d="M34.86,24.828c-2.138-2.345-7.962-1.319-9.369-1.173A32.322,32.322,0,0,1,21.518,18.4,23.462,23.462,0,0,0,22.8,11.379C22.8,9.18,21.946,7,19.683,7a2.263,2.263,0,0,0-1.995,1.173c-1,1.759-.57,5.259,1,8.9a59,59,0,0,1-3.972,9.638c-2.28.879-7.25,3.206-7.677,5.845a2.189,2.189,0,0,0,.713,2.052,2.623,2.623,0,0,0,2,.733c2.975,0,5.967-4.233,8.1-8.044A44.812,44.812,0,0,1,24.956,25.4c3.117,2.932,5.967,3.353,7.392,3.353,2,0,2.708-.879,2.975-1.612A2.128,2.128,0,0,0,34.86,24.828Zm-1.995,1.466c-.143.586-.855,1.173-2.138.879a10.227,10.227,0,0,1-4.115-2.2,18.843,18.843,0,0,1,5.112-.147A1.323,1.323,0,0,1,32.865,26.294ZM19.078,8.759a.781.781,0,0,1,.713-.44c.713,0,.855.879.855,1.612a21.42,21.42,0,0,1-1,5.259C18.508,11.984,18.65,9.638,19.078,8.759Zm-.143,16.509A35.567,35.567,0,0,0,20.788,20.6a25.663,25.663,0,0,0,2.565,3.5A21.142,21.142,0,0,0,18.935,25.268Zm-4.827,3.371c-1.977,3.206-3.83,5.259-4.97,5.259a.838.838,0,0,1-.57-.147.992.992,0,0,1-.143-.879C8.568,31.7,10.848,30.087,14.108,28.639Z" transform="translate(2.333 2.333)" fill="#ce9723"/>
  </g>
</svg>
