<svg xmlns="http://www.w3.org/2000/svg" width="170.8" height="35" viewBox="0 0 170.8 35">
  <g id="Poweredby" transform="translate(-220.386 -302.435)">
    <g id="Rectangle_6205" data-name="Rectangle 6205" transform="translate(220.386 302.435)" fill="#fff" stroke="#707070" stroke-width="1" opacity="0">
      <rect width="170.8" height="35" stroke="none"/>
      <rect x="0.5" y="0.5" width="169.8" height="34" fill="none"/>
    </g>
    <path id="Path_154794" data-name="Path 154794" d="M4.19-6.177H.945V2.144H2.134V-.376H4.19c2.164,0,3.472-1.093,3.472-2.9S6.355-6.177,4.19-6.177ZM4.155-1.41H2.134V-5.143H4.155c1.522,0,2.318.678,2.318,1.866S5.677-1.41,4.155-1.41Zm7.526,3.626a3.136,3.136,0,0,0,2.335-.9A3.136,3.136,0,0,0,14.951-1a3.126,3.126,0,0,0-.934-2.318,3.126,3.126,0,0,0-2.335-.893,3.136,3.136,0,0,0-2.339.89A3.136,3.136,0,0,0,8.4-1.006a3.146,3.146,0,0,0,.941,2.324,3.146,3.146,0,0,0,2.341.9Zm0-1a2.086,2.086,0,0,1-1.56-.645,2.086,2.086,0,0,1-.574-1.581,2.076,2.076,0,0,1,.575-1.576,2.076,2.076,0,0,1,1.553-.636,2.068,2.068,0,0,1,1.548.637,2.068,2.068,0,0,1,.568,1.575A2.078,2.078,0,0,1,13.23.572a2.078,2.078,0,0,1-1.548.644ZM24.629-4.157,22.75.883l-1.866-5.04h-.962L18.018.86,16.187-4.157H15.106l2.342,6.3h1.093l1.842-4.778,1.82,4.78H23.3l2.355-6.3ZM32.084-.968a3.038,3.038,0,0,0-.84-2.314,3.038,3.038,0,0,0-2.276-.934,3.08,3.08,0,0,0-2.282.916A3.08,3.08,0,0,0,25.8-1.006a3.154,3.154,0,0,0,.98,2.36,3.154,3.154,0,0,0,2.408.86,3.163,3.163,0,0,0,2.485-1.022l-.63-.738a2.353,2.353,0,0,1-1.82.762A2.135,2.135,0,0,1,26.942-.626H32.06a3.37,3.37,0,0,0,.024-.342ZM28.969-3.253A1.96,1.96,0,0,1,30.99-1.445H26.947A1.96,1.96,0,0,1,28.969-3.253Zm5.552.154V-4.157H33.428v6.3h1.141V-.995a1.88,1.88,0,0,1,.489-1.54,1.88,1.88,0,0,1,1.5-.594,2.015,2.015,0,0,1,.262.011V-4.223A2.4,2.4,0,0,0,34.521-3.1Zm9.1,2.128a3.038,3.038,0,0,0-.84-2.314A3.038,3.038,0,0,0,40.5-4.216a3.08,3.08,0,0,0-2.279.917,3.08,3.08,0,0,0-.883,2.293,3.154,3.154,0,0,0,.98,2.36,3.154,3.154,0,0,0,2.408.86,3.163,3.163,0,0,0,2.485-1.022l-.63-.738a2.353,2.353,0,0,1-1.82.762A2.135,2.135,0,0,1,38.479-.626h5.113a3.39,3.39,0,0,0,.025-.342ZM40.5-3.253a1.96,1.96,0,0,1,2.022,1.807H38.48A1.96,1.96,0,0,1,40.5-3.253Zm9.262-3.424v3.469a2.681,2.681,0,0,0-2.2-1.011,3.059,3.059,0,0,0-2.3.9,3.059,3.059,0,0,0-.883,2.309A3.069,3.069,0,0,0,45.262,1.3a3.069,3.069,0,0,0,2.3.907,2.66,2.66,0,0,0,2.24-1.07v1H50.9V-6.68Zm-2.1,7.895A2.086,2.086,0,0,1,46.11.575a2.086,2.086,0,0,1-.574-1.581,2.076,2.076,0,0,1,.575-1.576,2.076,2.076,0,0,1,1.553-.636,2.073,2.073,0,0,1,1.54.64,2.073,2.073,0,0,1,.571,1.572A2.085,2.085,0,0,1,49.209.572a2.085,2.085,0,0,1-1.55.645Zm13.9-3.388a1.973,1.973,0,0,0,1.12-1.855c0-1.344-1.07-2.152-2.985-2.152H55.958V2.144H59.93c2.1,0,3.186-.82,3.186-2.24a2.012,2.012,0,0,0-1.558-2.075Zm-1.98-3.044c1.212,0,1.9.452,1.9,1.331s-.69,1.331-1.9,1.331H57.147v-2.66Zm.3,6.4H57.147V-1.588h2.734c1.32,0,2.033.428,2.033,1.392S61.2,1.182,59.882,1.182Zm9.131-5.338L66.836.884l-2.2-5.04H63.448l2.783,6.289-.2.44c-.309.725-.654.98-1.2.98a1.613,1.613,0,0,1-1.13-.461l-.487.855a2.366,2.366,0,0,0,1.617.582c.963,0,1.688-.42,2.24-1.747l3.056-6.931Z" transform="translate(220.841 320.313)" fill="#2e2e2e" opacity="0.802"/>
    <path id="GoodLogo_Color" d="M68.31,292.823a15.461,15.461,0,0,1-.946-5.377V287.4H63.319v.049a19.546,19.546,0,0,0,1.737,8.055,8.939,8.939,0,1,1,3.255-13.428,15.139,15.139,0,0,1,2.016-3.78,12.932,12.932,0,1,0,0,18.308,15.177,15.177,0,0,1-2.016-3.787Zm51.309-10.752a15.576,15.576,0,0,1,.931,5.378c0,.022,0,.041,0,.041H124.6v-.041a19.278,19.278,0,0,0-1.736-8.049,9.032,9.032,0,0,1,3.884-.881,8.935,8.935,0,1,1,0,17.87,8.8,8.8,0,0,1-7.125-3.562,16.035,16.035,0,0,1-2.037,3.787,12.953,12.953,0,1,0,0-18.308,15.97,15.97,0,0,1,2.037,3.78ZM104.894,274.5a12.96,12.96,0,0,0-12.943,12.946v.092a8.917,8.917,0,1,1-1.786-5.46,15.075,15.075,0,0,1,2-3.78,12.93,12.93,0,1,0,3.8,9.148v-.092a8.926,8.926,0,1,1,8.926,9.026,8.832,8.832,0,0,1-7.14-3.56,15.167,15.167,0,0,1-2,3.788,12.942,12.942,0,1,0,9.143-22.107Z" transform="translate(248.368 32.135)" fill="#e14466" fill-rule="evenodd"/>
  </g>
</svg>
