<svg xmlns="http://www.w3.org/2000/svg" width="83.052" height="8.592" viewBox="0 0 83.052 8.592">
  <path id="Path_213690" data-name="Path 213690" d="M4.536-8.4H1.26V0h1.2V-2.544H4.536c2.184,0,3.5-1.1,3.5-2.928S6.72-8.4,4.536-8.4ZM4.5-3.588H2.46V-7.356H4.5c1.536,0,2.34.684,2.34,1.884S6.036-3.588,4.5-3.588ZM13.476.1a4.256,4.256,0,0,0,4.452-4.3,4.256,4.256,0,0,0-4.452-4.3A4.269,4.269,0,0,0,9-4.2,4.269,4.269,0,0,0,13.476.1Zm0-1.068A3.16,3.16,0,0,1,10.2-4.2a3.16,3.16,0,0,1,3.276-3.228A3.154,3.154,0,0,1,16.728-4.2,3.154,3.154,0,0,1,13.476-.972ZM29.988-8.4,27.672-1.536,25.356-8.4h-1.1L21.888-1.572,19.62-8.4H18.384L21.192,0h1.284l2.292-6.708L27.06,0h1.26l2.808-8.4Zm3.564,7.356V-3.756h4.212v-1.02H33.552v-2.58H38.28V-8.4H32.352V0h6.1V-1.044ZM47.076,0,45.084-2.82a2.651,2.651,0,0,0,1.848-2.652c0-1.824-1.32-2.928-3.5-2.928H40.152V0h1.2V-2.556h2.076c.18,0,.36-.012.528-.024L45.768,0ZM43.392-3.576h-2.04v-3.78h2.04c1.536,0,2.34.684,2.34,1.884S44.928-3.576,43.392-3.576Zm6.444,2.532V-3.756h4.212v-1.02H49.836v-2.58h4.728V-8.4H48.636V0h6.1V-1.044ZM56.436,0h3.54c2.7,0,4.536-1.7,4.536-4.2s-1.836-4.2-4.536-4.2h-3.54Zm1.2-1.044V-7.356H59.9A3.1,3.1,0,0,1,63.312-4.2,3.1,3.1,0,0,1,59.9-1.044ZM74.748-4.356a1.991,1.991,0,0,0,1.128-1.872c0-1.356-1.08-2.172-3.012-2.172H69.1V0H73.1c2.124,0,3.216-.828,3.216-2.268A2.03,2.03,0,0,0,74.748-4.356ZM72.756-7.428c1.224,0,1.92.456,1.92,1.344s-.7,1.344-1.92,1.344H70.3V-7.428Zm.3,6.456H70.3v-2.8h2.76c1.332,0,2.052.432,2.052,1.4S74.388-.972,73.056-.972ZM84.312-8.4H83.124l-2.7,4.428L77.736-8.4H76.452l3.336,5.472V0h1.188V-2.9Z" transform="translate(-1.26 8.496)" fill="#2e2e2e" opacity="0.4"/>
</svg>
