<svg xmlns="http://www.w3.org/2000/svg" width="112.437" height="40" viewBox="0 0 112.437 40">
  <g id="GoodUX" transform="translate(-275.629 -299.592)">
    <g id="Rectangle_6205" data-name="Rectangle 6205" transform="translate(275.629 299.592)" fill="#fff" stroke="#707070" stroke-width="1" opacity="0">
      <rect width="112.437" height="40" stroke="none"/>
      <rect x="0.5" y="0.5" width="111.437" height="39" fill="none"/>
    </g>
    <path id="GoodLogo_Color" d="M68.31,292.823a15.461,15.461,0,0,1-.946-5.377V287.4H63.319v.049a19.546,19.546,0,0,0,1.737,8.055,8.939,8.939,0,1,1,3.255-13.428,15.139,15.139,0,0,1,2.016-3.78,12.932,12.932,0,1,0,0,18.308,15.177,15.177,0,0,1-2.016-3.787Zm51.309-10.752a15.576,15.576,0,0,1,.931,5.378c0,.022,0,.041,0,.041H124.6v-.041a19.278,19.278,0,0,0-1.736-8.049,9.032,9.032,0,0,1,3.884-.881,8.935,8.935,0,1,1,0,17.87,8.8,8.8,0,0,1-7.125-3.562,16.035,16.035,0,0,1-2.037,3.787,12.953,12.953,0,1,0,0-18.308,15.97,15.97,0,0,1,2.037,3.78ZM104.894,274.5a12.96,12.96,0,0,0-12.943,12.946v.092a8.917,8.917,0,1,1-1.786-5.46,15.075,15.075,0,0,1,2-3.78,12.93,12.93,0,1,0,3.8,9.148v-.092a8.926,8.926,0,1,1,8.926,9.026,8.832,8.832,0,0,1-7.14-3.56,15.167,15.167,0,0,1-2,3.788,12.942,12.942,0,1,0,9.143-22.107Z" transform="translate(248.368 32.135)" fill="#e14466" fill-rule="evenodd"/>
    <path id="Path_213689" data-name="Path 213689" d="M0,0V18" transform="translate(286.187 309.265)" fill="none" stroke="#707070" stroke-width="0.5" opacity="0.289"/>
  </g>
</svg>
