<svg xmlns="http://www.w3.org/2000/svg" xmlns:xlink="http://www.w3.org/1999/xlink" width="116.818" height="40" viewBox="0 0 116.818 40">
  <defs>
    <clipPath id="clip-path">
      <path id="shield-police-svgrepo-com" d="M19.38,41.96a.631.631,0,0,0,.441,0c1.894-.66,15.38-5.924,15.38-21.454V6.608a.8.8,0,0,0-.59-.778L19.79,2.024a.761.761,0,0,0-.379,0L4.59,5.83A.8.8,0,0,0,4,6.609V20.5C4,35.879,17.492,41.278,19.38,41.96Z" transform="translate(-4 -2)" fill="#0d2354"/>
    </clipPath>
  </defs>
  <g id="Group_23319" data-name="Group 23319" transform="translate(-77.095 -490)">
    <g id="Group_157810" data-name="Group 157810" transform="translate(77.095 490)">
      <path id="shield-police-svgrepo-com-2" data-name="shield-police-svgrepo-com" d="M19.38,41.96a.631.631,0,0,0,.441,0c1.894-.66,15.38-5.924,15.38-21.454V6.608a.8.8,0,0,0-.59-.778L19.79,2.024a.761.761,0,0,0-.379,0L4.59,5.83A.8.8,0,0,0,4,6.609V20.5C4,35.879,17.492,41.278,19.38,41.96Z" transform="translate(-4 -2)" fill="#0d2354" fill-rule="evenodd"/>
      <g id="Mask_Group_3" data-name="Mask Group 3" transform="translate(0)" clip-path="url(#clip-path)">
        <g id="Group_23314" data-name="Group 23314" transform="translate(4.227 2.594)">
          <g id="Group_23316" data-name="Group 23316" transform="translate(0 9.082)">
            <g id="courtroom_logo" transform="translate(0 0)">
              <g id="Group_23310" data-name="Group 23310">
                <path id="Path_154198" data-name="Path 154198" d="M143.792,68.339a.76.76,0,0,0,.51-.755v-.727a.76.76,0,0,0-.51-.755.738.738,0,0,0-.676.1.779.779,0,0,0-.315.622v.784a.791.791,0,0,0,.32.615A.75.75,0,0,0,143.792,68.339Z" transform="translate(-129.455 -57.393)" fill="#d7aa7c"/>
                <path id="Path_154199" data-name="Path 154199" d="M133.865,87.3a.731.731,0,0,0-.765.676v19.2a4.36,4.36,0,0,1,.765-.043,3.892,3.892,0,0,1,.737.043v-19.2A.724.724,0,0,0,133.865,87.3Z" transform="translate(-122.503 -72.458)" fill="#d7aa7c"/>
                <path id="Path_154200" data-name="Path 154200" d="M142.728,107.123a7.182,7.182,0,0,1,1.5.752V87.964a.773.773,0,0,0-1.53,0v19.157Z" transform="translate(-129.383 -72.46)" fill="#d7aa7c"/>
                <path id="Path_154201" data-name="Path 154201" d="M124.165,87.3a.726.726,0,0,0-.765.664v19.882a7.179,7.179,0,0,1,1.5-.753V87.96a.7.7,0,0,0-.229-.495A.664.664,0,0,0,124.165,87.3Z" transform="translate(-115.552 -72.456)" fill="#d7aa7c"/>
                <path id="Path_154202" data-name="Path 154202" d="M123.4,66.84V67.6a.76.76,0,0,0,.51.755.738.738,0,0,0,.676-.1.779.779,0,0,0,.315-.622V66.87a.751.751,0,1,0-1.5-.029Z" transform="translate(-115.55 -57.405)" fill="#d7aa7c"/>
                <path id="Path_154204" data-name="Path 154204" d="M133.1,66.84V67.6a.76.76,0,0,0,.51.755.738.738,0,0,0,.676-.1.779.779,0,0,0,.315-.622V66.87a.751.751,0,1,0-1.5-.029Z" transform="translate(-122.502 -57.405)" fill="#d7aa7c"/>
                <path id="Path_154207" data-name="Path 154207" d="M-10409.644-4080.083h0l-.05-.018-.252-.086v-1.537l.046.017.026.01.2.075v-21.253a.777.777,0,0,1-.767-.783.778.778,0,0,1,.767-.785v-2.906a2.325,2.325,0,0,0,.764-1.743,2.292,2.292,0,0,0-2.264-2.314,2.386,2.386,0,0,0-.456.047,2.258,2.258,0,0,0-1.755,1.8,2.373,2.373,0,0,0,.472,1.941,2.218,2.218,0,0,0,1.738.849h.055v1.54h-.055a3.693,3.693,0,0,1-2.659-1.126,3.882,3.882,0,0,1-1.11-2.738,3.852,3.852,0,0,1,3.032-3.806v-1.708a1.555,1.555,0,0,1,.442-1.085,1.468,1.468,0,0,1,1.06-.454h13.6a1.472,1.472,0,0,1,1.059.454,1.548,1.548,0,0,1,.442,1.085v1.708a3.9,3.9,0,0,1,3.033,3.806,3.825,3.825,0,0,1-3.771,3.865h-.055v-1.54h.058a2.219,2.219,0,0,0,2.1-1.4,2.4,2.4,0,0,0-.211-2.218,2.263,2.263,0,0,0-1.888-1.024,2.439,2.439,0,0,0-.28.017,2.334,2.334,0,0,0-1.3.662,2.333,2.333,0,0,0-.658,1.315,2.362,2.362,0,0,0,.736,2.063v2.907a.776.776,0,0,1,.768.784.774.774,0,0,1-.765.783v21.253c.076-.028.16-.058.25-.093v1.538l-.279.1a8.127,8.127,0,0,0-1.5-1.133v-21.66h-1.5a.756.756,0,0,1-.609-.323.786.786,0,0,1-.1-.693.743.743,0,0,1,.737-.522h1.472v-2.325a3.6,3.6,0,0,1-.681-1.541h-7.706a3.632,3.632,0,0,1-.679,1.541v2.325h4.5a.8.8,0,0,1,.737.522.792.792,0,0,1-.1.7.744.744,0,0,1-.614.317h-4.53v21.659a8.11,8.11,0,0,0-1.5,1.133Zm1.527-31.307a3.6,3.6,0,0,1,.683,1.541h7.7a3.2,3.2,0,0,1,.739-1.541h-1.5a.776.776,0,0,1-.765.785.775.775,0,0,1-.765-.785h-.764a.776.776,0,0,1-.766.785.777.777,0,0,1-.765-.785h-.765a.776.776,0,0,1-.765.785.776.776,0,0,1-.767-.785Zm-2.267-3.189v1.648h13.6v-1.648Z" transform="translate(10414.943 4116.146)" fill="#d7aa7c"/>
              </g>
            </g>
          </g>
          <path id="Polygon_7" data-name="Polygon 7" d="M3.373,0l1.2,1.92,2.176.558L5.313,4.222l.145,2.264L3.373,5.645l-2.085.841.145-2.264L0,2.477,2.176,1.92Z" transform="translate(7.961 0)" fill="#d7aa7c"/>
        </g>
      </g>
    </g>
    <path id="Path_154209" data-name="Path 154209" d="M1.852-18.265h3.9v-.569c-1.118-.02-1.463-.325-1.463-1.3V-32.182L.47-31.491v.528h.2c.874,0,1.179.3,1.179,1.179Zm13.455-1.341c-.528.285-.649.325-.915.325-.406,0-.549-.224-.549-.854v-4.35a2.677,2.677,0,0,0-1.585-2.744,6.068,6.068,0,0,0-2.576-.461c-.005,0-.984.023-1.14.021v.772c.056,0,.941-.019,1.128,0,1.375.125,1.735.58,1.735,2.249v.61A8.4,8.4,0,0,0,7.686-23,2.909,2.909,0,0,0,6.2-20.44,2.539,2.539,0,0,0,8.946-18.1a3.053,3.053,0,0,0,2.621-1.177A1.488,1.488,0,0,0,13.173-18.1a4.22,4.22,0,0,0,2.134-.772Zm-3.9-1.5A1.744,1.744,0,0,1,9.88-19.322c-.649,0-1.077-.61-1.077-1.524a2.051,2.051,0,0,1,.692-1.585,3.567,3.567,0,0,1,1.91-.833Zm14.024,3.089L28.937-27.7H27.8l-2.229,6.179L23.489-27.7H19.995l-.034.732c.874.02,1.28.325,1.667,1.26l-1.545,4.187L18-27.7h-3.5l-.034.732c.976.041,1.362.386,1.789,1.585l2.622,7.357h1.077l2.236-6.1,2.154,6.1Z" transform="translate(115.706 535.155)" fill="#0d2354"/>
    <path id="Path_154210" data-name="Path 154210" d="M79.523-18.213h3.9v-.569c-1.1-.02-1.465-.325-1.465-1.219v-4.187c0-2.358-.917-3.455-2.868-3.455a2.773,2.773,0,0,0-2.823,1.5,2.3,2.3,0,0,0-2.541-1.5,2.986,2.986,0,0,0-2.5.976v-1.015l-3.775.041v.528h.2c.874,0,1.179.3,1.179,1.179l-.045,7.722h2.439v-5.65c0-1.484.813-2.6,1.89-2.6.772,0,1.038.61,1.038,2.419v5.833H76.6v-5.65c0-1.443.813-2.6,1.829-2.6.854,0,1.1.528,1.1,2.4Zm5.366,0h3.9v-.569c-1.159-.02-1.463-.325-1.463-1.463v-7.4H83.557v.528c1.057.02,1.384.264,1.384,1.1Zm1.057-13.876a1.627,1.627,0,0,0-1.164.491,1.627,1.627,0,0,0-.462,1.176A1.648,1.648,0,0,0,85.966-28.8a1.639,1.639,0,0,0,1.166-.48,1.639,1.639,0,0,0,.48-1.166,1.632,1.632,0,0,0-.485-1.176A1.632,1.632,0,0,0,85.946-32.089Zm9.837,13.876h3.9v-.569c-1.119-.041-1.465-.325-1.465-1.3V-24.35c0-2.175-.955-3.293-2.825-3.293a3.016,3.016,0,0,0-2.541.976v-.976H89.031v.528c1.077.02,1.384.285,1.384,1.179l0,7.723h2.439v-5.732c0-1.423.833-2.52,1.91-2.52.732,0,1.016.589,1.016,2.114Zm12.575-4.634a5.349,5.349,0,0,0-1.016-3.5,3.535,3.535,0,0,0-2.927-1.3c-2.724,0-4.593,1.992-4.593,4.9A4.471,4.471,0,0,0,102.18-18.7c.83.471,1.59.628,3.646.649h1.2v-.81c-.079,0-1.021,0-1.234-.013-2.047-.093-3.433-1.614-3.452-3.97Zm-6.016-.854c.041-1.992.649-3.089,1.686-3.089a1.286,1.286,0,0,1,1.077.671,4.337,4.337,0,0,1,.528,2.419Zm12.19-3.943c-.075,0-1.014,0-1.219.011-2.72.09-4.122.865-4.122,2.469a2.545,2.545,0,0,0,.752,1.85,9.162,9.162,0,0,0,2.744,1.687c1.038.528,1.341.833,1.341,1.4a1.4,1.4,0,0,1-1.565,1.362c-1.2,0-1.951-.61-2.825-2.276h-.61l.692,2.6a12.067,12.067,0,0,0,2.685.488c2.2,0,3.821-1.138,3.821-2.7,0-1.484-.935-2.378-3.74-3.658-.995-.447-1.341-.772-1.341-1.28,0-.649.7-.976,2.227-1.151,0,0,1.011-.015,1.163-.028Z" transform="translate(77.688 535.102)" fill="#d7aa7c"/>
  </g>
</svg>
