<svg xmlns="http://www.w3.org/2000/svg" width="44" height="44" viewBox="0 0 44 44">
  <g id="QRCode_Icon" transform="translate(5542 7157)">
    <path id="download-square-svgrepo-com_1_" data-name="download-square-svgrepo-com (1)" d="M2,24C2,13.629,2,8.444,5.222,5.222S13.629,2,24,2,39.556,2,42.778,5.222,46,13.629,46,24s0,15.556-3.222,18.778S34.371,46,24,46,8.444,46,5.222,42.778,2,34.371,2,24Z" transform="translate(-5544 -7159)" fill="#ce9722" fill-rule="evenodd"/>
    <path id="Path_195107" data-name="Path 195107" d="M3,14.733H5.933v2.933H3V14.733m11.733-8.8h2.933V11.8H14.733V5.933m-2.933,8.8h5.867V20.6H14.733V17.667H11.8V14.733m8.8,0h2.933v2.933h2.933V14.733H29.4v2.933H26.467V20.6H29.4v5.867H26.467V29.4H23.533V26.467H17.667V29.4H14.733V23.533H20.6V20.6h2.933V17.667H20.6V14.733m5.867,11.733V20.6H23.533v5.867h2.933M20.6,3h8.8v8.8H20.6V3m2.933,2.933V8.867h2.933V5.933H23.533M3,3h8.8v8.8H3V3M5.933,5.933V8.867H8.867V5.933H5.933M3,20.6h8.8v8.8H3V20.6m2.933,2.933v2.933H8.867V23.533Z" transform="translate(-5536.2 -7151.2)" fill="#fff"/>
  </g>
</svg>
