<svg id="SavetoContacts" xmlns="http://www.w3.org/2000/svg" width="179.07" height="44" viewBox="0 0 179.07 44">
  <path id="Path_214554" data-name="Path 214554" d="M10,0H169.07a10,10,0,0,1,10,10V34a10,10,0,0,1-10,10H10A10,10,0,0,1,0,34V10A10,10,0,0,1,10,0Z" fill="#020717"/>
  <g id="Group_157413" data-name="Group 157413" transform="translate(14.401 11.908)">
    <path id="Path_195121" data-name="Path 195121" d="M4.4,0A4.4,4.4,0,1,1,0,4.4,4.4,4.4,0,0,1,4.4,0Z" transform="translate(2.933)" fill="#cf9115"/>
    <path id="Path_195120" data-name="Path 195120" d="M2.2,0H12.467a2.2,2.2,0,0,1,2.2,2.2V3.3a5.5,5.5,0,0,1-5.5,5.5H5.5A5.5,5.5,0,0,1,0,3.3V2.2A2.2,2.2,0,0,1,2.2,0Z" transform="translate(0 11.733)" fill="#cf9115"/>
  </g>
  <path id="Path_214556" data-name="Path 214556" d="M7.346-3.171a1.278,1.278,0,0,0-.5-1.083,6.533,6.533,0,0,0-1.793-.8A12.71,12.71,0,0,1,3-5.877a3.35,3.35,0,0,1-2.059-3A2.919,2.919,0,0,1,1.5-10.621a3.6,3.6,0,0,1,1.585-1.2,5.967,5.967,0,0,1,2.32-.432,5.432,5.432,0,0,1,2.308.469,3.674,3.674,0,0,1,1.573,1.324,3.464,3.464,0,0,1,.56,1.942H7.354a1.63,1.63,0,0,0-.523-1.291,2.15,2.15,0,0,0-1.469-.461,2.3,2.3,0,0,0-1.419.386,1.217,1.217,0,0,0-.506,1.017,1.166,1.166,0,0,0,.594.988,6.705,6.705,0,0,0,1.747.747,7.55,7.55,0,0,1,3.1,1.585,3.157,3.157,0,0,1,.971,2.357A2.909,2.909,0,0,1,8.658-.726a5.2,5.2,0,0,1-3.2.892,6.171,6.171,0,0,1-2.54-.51,4.019,4.019,0,0,1-1.747-1.4A3.582,3.582,0,0,1,.573-3.8h2.5q0,2,2.391,2a2.326,2.326,0,0,0,1.386-.361A1.175,1.175,0,0,0,7.346-3.171ZM16.322,0a2.664,2.664,0,0,1-.241-.805,2.9,2.9,0,0,1-2.266.971A3.189,3.189,0,0,1,11.628-.6a2.456,2.456,0,0,1-.867-1.926,2.538,2.538,0,0,1,1.058-2.191,5.222,5.222,0,0,1,3.059-.772h1.1V-6a1.48,1.48,0,0,0-.32-1,1.257,1.257,0,0,0-1.009-.374,1.429,1.429,0,0,0-.95.291.987.987,0,0,0-.344.8h-2.4a2.41,2.41,0,0,1,.481-1.444A3.182,3.182,0,0,1,12.8-8.77a4.961,4.961,0,0,1,1.976-.378,3.92,3.92,0,0,1,2.635.834,2.918,2.918,0,0,1,.975,2.345v3.893a4.294,4.294,0,0,0,.357,1.934V0ZM14.338-1.668a2.066,2.066,0,0,0,.979-.237,1.554,1.554,0,0,0,.664-.635V-4.084h-.9q-1.8,0-1.917,1.245l-.008.141a.96.96,0,0,0,.315.739A1.225,1.225,0,0,0,14.338-1.668ZM23.214-2.93l1.668-6.051h2.507L24.359,0H22.068l-3.03-8.981h2.507Zm9.108,3.1a4.409,4.409,0,0,1-3.217-1.212,4.308,4.308,0,0,1-1.241-3.229v-.232a5.426,5.426,0,0,1,.523-2.42,3.838,3.838,0,0,1,1.482-1.644,4.159,4.159,0,0,1,2.187-.577,3.727,3.727,0,0,1,2.9,1.162,4.722,4.722,0,0,1,1.058,3.3v.979H30.3A2.229,2.229,0,0,0,31-2.3a2.12,2.12,0,0,0,1.482.531,2.589,2.589,0,0,0,2.167-1l1.179,1.32A3.6,3.6,0,0,1,34.364-.261,4.793,4.793,0,0,1,32.322.166Zm-.274-7.371a1.5,1.5,0,0,0-1.158.481,2.487,2.487,0,0,0-.569,1.378h3.337v-.191a1.773,1.773,0,0,0-.432-1.233A1.55,1.55,0,0,0,32.048-7.205Zm11.377-3.951v2.175H45.1v1.187H43.425v5.57a1.244,1.244,0,0,0,.224.809.944.944,0,0,0,.764.27,3.718,3.718,0,0,0,.73-.1V0a4.452,4.452,0,0,1-1.179.166,1.912,1.912,0,0,1-1.552-.623,2.675,2.675,0,0,1-.523-1.768v-5.57H40.254V-8.981h1.635v-2.175Zm2.642,6.583a5.3,5.3,0,0,1,.519-2.374A3.87,3.87,0,0,1,48.03-8.575a3.932,3.932,0,0,1,2.113-.573,3.788,3.788,0,0,1,2.968,1.27A4.886,4.886,0,0,1,54.243-4.5v.108a5.351,5.351,0,0,1-.5,2.353A3.813,3.813,0,0,1,52.3-.415a3.977,3.977,0,0,1-2.146.581A3.778,3.778,0,0,1,47.2-1.1a4.861,4.861,0,0,1-1.133-3.362Zm1.544.183a3.842,3.842,0,0,0,.693,2.4,2.218,2.218,0,0,0,1.855.9A2.2,2.2,0,0,0,52.018-2a4.2,4.2,0,0,0,.689-2.569,3.836,3.836,0,0,0-.7-2.395,2.23,2.23,0,0,0-1.864-.917,2.205,2.205,0,0,0-1.834.9A4.17,4.17,0,0,0,47.611-4.391ZM69.3-4.026a4.277,4.277,0,0,1-1.44,3.071A5.058,5.058,0,0,1,64.433.166,4.548,4.548,0,0,1,60.776-1.4a6.416,6.416,0,0,1-1.332-4.3v-.739A7.245,7.245,0,0,1,60.058-9.5a4.6,4.6,0,0,1,1.756-2.038,4.918,4.918,0,0,1,2.652-.71,4.927,4.927,0,0,1,3.37,1.121,4.6,4.6,0,0,1,1.478,3.146h-2.49a2.524,2.524,0,0,0-.652-1.7,2.413,2.413,0,0,0-1.706-.527,2.116,2.116,0,0,0-1.864.892,5,5,0,0,0-.635,2.768v.913a5.352,5.352,0,0,0,.594,2.864,2.077,2.077,0,0,0,1.872.9,2.458,2.458,0,0,0,1.722-.527,2.381,2.381,0,0,0,.652-1.631Zm.849-.548a5.326,5.326,0,0,1,.515-2.382,3.768,3.768,0,0,1,1.482-1.619,4.323,4.323,0,0,1,2.245-.573,4.09,4.09,0,0,1,2.968,1.112,4.464,4.464,0,0,1,1.282,3.021l.017.614A4.694,4.694,0,0,1,77.5-1.083,4.011,4.011,0,0,1,74.4.166a4.031,4.031,0,0,1-3.1-1.245,4.777,4.777,0,0,1-1.158-3.387Zm2.4.174a3.348,3.348,0,0,0,.481,1.955,1.589,1.589,0,0,0,1.378.677,1.593,1.593,0,0,0,1.361-.668,3.664,3.664,0,0,0,.49-2.137,3.315,3.315,0,0,0-.49-1.942,1.593,1.593,0,0,0-1.378-.689,1.567,1.567,0,0,0-1.361.685A3.725,3.725,0,0,0,72.545-4.4Zm9.54-4.582.075,1.038a3.136,3.136,0,0,1,2.582-1.2,2.606,2.606,0,0,1,2.125.838A3.912,3.912,0,0,1,87.58-5.8V0h-2.4V-5.744a1.556,1.556,0,0,0-.332-1.108,1.486,1.486,0,0,0-1.1-.344,1.65,1.65,0,0,0-1.519.863V0h-2.4V-8.981Zm9.93-2.208v2.208H93.55v1.76H92.015v4.482a1.07,1.07,0,0,0,.191.714.959.959,0,0,0,.73.216,3.826,3.826,0,0,0,.706-.058V-.05a4.939,4.939,0,0,1-1.453.216,2.29,2.29,0,0,1-2.573-2.548V-7.222H88.3v-1.76h1.312v-2.208ZM99.836,0A2.664,2.664,0,0,1,99.6-.805,2.9,2.9,0,0,1,97.33.166,3.189,3.189,0,0,1,95.142-.6a2.456,2.456,0,0,1-.867-1.926,2.538,2.538,0,0,1,1.058-2.191,5.222,5.222,0,0,1,3.059-.772h1.1V-6a1.48,1.48,0,0,0-.32-1,1.257,1.257,0,0,0-1.009-.374,1.429,1.429,0,0,0-.95.291.987.987,0,0,0-.344.8h-2.4a2.41,2.41,0,0,1,.481-1.444A3.182,3.182,0,0,1,96.317-8.77a4.961,4.961,0,0,1,1.976-.378,3.92,3.92,0,0,1,2.635.834,2.918,2.918,0,0,1,.975,2.345v3.893a4.294,4.294,0,0,0,.357,1.934V0ZM97.853-1.668a2.066,2.066,0,0,0,.979-.237A1.554,1.554,0,0,0,99.5-2.54V-4.084h-.9q-1.8,0-1.917,1.245l-.008.141a.96.96,0,0,0,.315.739A1.225,1.225,0,0,0,97.853-1.668Zm9.374-.1a1.573,1.573,0,0,0,1.079-.365,1.28,1.28,0,0,0,.432-.971h2.25a3.077,3.077,0,0,1-.5,1.673,3.286,3.286,0,0,1-1.341,1.179,4.2,4.2,0,0,1-1.88.419,3.9,3.9,0,0,1-3.038-1.224,4.845,4.845,0,0,1-1.112-3.383V-4.6a4.79,4.79,0,0,1,1.1-3.312,3.854,3.854,0,0,1,3.03-1.237,3.778,3.778,0,0,1,2.7.959,3.4,3.4,0,0,1,1.033,2.552h-2.25a1.635,1.635,0,0,0-.432-1.133,1.443,1.443,0,0,0-1.1-.436,1.446,1.446,0,0,0-1.266.61,3.532,3.532,0,0,0-.427,1.98v.249a3.576,3.576,0,0,0,.423,1.992A1.464,1.464,0,0,0,107.227-1.768Zm7.747-9.421v2.208h1.536v1.76h-1.536v4.482a1.07,1.07,0,0,0,.191.714.959.959,0,0,0,.73.216,3.826,3.826,0,0,0,.706-.058V-.05a4.939,4.939,0,0,1-1.453.216,2.29,2.29,0,0,1-2.573-2.548V-7.222h-1.312v-1.76h1.312v-2.208Zm7.481,8.708a.773.773,0,0,0-.436-.693,4.95,4.95,0,0,0-1.4-.452q-3.2-.672-3.2-2.723a2.468,2.468,0,0,1,.992-2,4,4,0,0,1,2.594-.8,4.307,4.307,0,0,1,2.735.805,2.538,2.538,0,0,1,1.025,2.092h-2.4a1.161,1.161,0,0,0-.332-.851,1.405,1.405,0,0,0-1.038-.336,1.436,1.436,0,0,0-.938.274.865.865,0,0,0-.332.7.739.739,0,0,0,.378.643,3.885,3.885,0,0,0,1.274.423,10.407,10.407,0,0,1,1.511.4,2.482,2.482,0,0,1,1.9,2.416,2.343,2.343,0,0,1-1.054,1.988,4.548,4.548,0,0,1-2.723.76,4.75,4.75,0,0,1-2-.4,3.363,3.363,0,0,1-1.374-1.1,2.565,2.565,0,0,1-.5-1.515h2.274a1.252,1.252,0,0,0,.473.979,1.877,1.877,0,0,0,1.179.34A1.737,1.737,0,0,0,122.1-1.8.814.814,0,0,0,122.455-2.482Z" transform="translate(39.07 28.5)" fill="#fff"/>
</svg>
